<?xml version="1.0" encoding="utf-8" standalone="no"?>
<!DOCTYPE svg PUBLIC "-//W3C//DTD SVG 1.1//EN"
  "http://www.w3.org/Graphics/SVG/1.1/DTD/svg11.dtd">
<svg xmlns:xlink="http://www.w3.org/1999/xlink" width="305.17625pt" height="232.740812pt" viewBox="0 0 305.17625 232.740812" xmlns="http://www.w3.org/2000/svg" version="1.1">
 <metadata>
  <rdf:RDF xmlns:dc="http://purl.org/dc/elements/1.1/" xmlns:cc="http://creativecommons.org/ns#" xmlns:rdf="http://www.w3.org/1999/02/22-rdf-syntax-ns#">
   <cc:Work>
    <dc:type rdf:resource="http://purl.org/dc/dcmitype/StillImage"/>
    <dc:date>2026-01-06T14:58:00.013101</dc:date>
    <dc:format>image/svg+xml</dc:format>
    <dc:creator>
     <cc:Agent>
      <dc:title>Matplotlib v3.10.8, https://matplotlib.org/</dc:title>
     </cc:Agent>
    </dc:creator>
   </cc:Work>
  </rdf:RDF>
 </metadata>
 <defs>
  <style type="text/css">*{stroke-linejoin: round; stroke-linecap: butt}</style>
 </defs>
 <g id="figure_1">
  <g id="patch_1">
   <path d="M 0 232.740812 
L 305.17625 232.740812 
L 305.17625 0 
L 0 0 
z
" style="fill: #ffffff"/>
  </g>
  <g id="axes_1">
   <g id="patch_2">
    <path d="M 40.59625 203.848 
L 303.73625 203.848 
L 303.73625 1.44 
L 40.59625 1.44 
z
" style="fill: #ffffff"/>
   </g>
   <g id="matplotlib.axis_1">
    <g id="xtick_1">
     <g id="line2d_1">
      <defs>
       <path id="mf6a3c3b629" d="M 0 0 
L 0 3.5 
" style="stroke: #000000; stroke-width: 0.8"/>
      </defs>
      <g>
       <use xlink:href="#mf6a3c3b629" x="82.340133" y="203.848" style="stroke: #000000; stroke-width: 0.8"/>
      </g>
     </g>
     <g id="text_1">
      <!-- $\mathdefault{10^{1}}$ -->
      <g transform="translate(75.300133 216.92675) scale(0.08 -0.08)">
       <defs>
        <path id="DejaVuSerif-31" d="M 909 0 
L 909 331 
L 1722 331 
L 1722 4213 
L 781 3603 
L 781 4013 
L 1919 4750 
L 2350 4750 
L 2350 331 
L 3163 331 
L 3163 0 
L 909 0 
z
" transform="scale(0.015625)"/>
        <path id="DejaVuSerif-30" d="M 2034 219 
Q 2513 219 2750 744 
Q 2988 1269 2988 2328 
Q 2988 3391 2750 3916 
Q 2513 4441 2034 4441 
Q 1556 4441 1318 3916 
Q 1081 3391 1081 2328 
Q 1081 1269 1318 744 
Q 1556 219 2034 219 
z
M 2034 -91 
Q 1275 -91 848 546 
Q 422 1184 422 2328 
Q 422 3475 848 4112 
Q 1275 4750 2034 4750 
Q 2797 4750 3222 4112 
Q 3647 3475 3647 2328 
Q 3647 1184 3222 546 
Q 2797 -91 2034 -91 
z
" transform="scale(0.015625)"/>
       </defs>
       <use xlink:href="#DejaVuSerif-31" transform="translate(0 0.7125)"/>
       <use xlink:href="#DejaVuSerif-30" transform="translate(63.623047 0.7125)"/>
       <use xlink:href="#DejaVuSerif-31" transform="translate(128.154453 37.046875) scale(0.7)"/>
      </g>
     </g>
    </g>
    <g id="xtick_2">
     <g id="line2d_2">
      <g>
       <use xlink:href="#mf6a3c3b629" x="147.373397" y="203.848" style="stroke: #000000; stroke-width: 0.8"/>
      </g>
     </g>
     <g id="text_2">
      <!-- $\mathdefault{10^{2}}$ -->
      <g transform="translate(140.333397 216.92675) scale(0.08 -0.08)">
       <defs>
        <path id="DejaVuSerif-32" d="M 819 3553 
L 469 3553 
L 469 4384 
Q 803 4563 1142 4656 
Q 1481 4750 1806 4750 
Q 2534 4750 2956 4397 
Q 3378 4044 3378 3438 
Q 3378 2753 2422 1800 
Q 2347 1728 2309 1691 
L 1131 513 
L 3078 513 
L 3078 1088 
L 3444 1088 
L 3444 0 
L 434 0 
L 434 341 
L 1850 1753 
Q 2319 2222 2519 2614 
Q 2719 3006 2719 3438 
Q 2719 3909 2473 4175 
Q 2228 4441 1797 4441 
Q 1350 4441 1106 4219 
Q 863 3997 819 3553 
z
" transform="scale(0.015625)"/>
       </defs>
       <use xlink:href="#DejaVuSerif-31" transform="translate(0 0.7125)"/>
       <use xlink:href="#DejaVuSerif-30" transform="translate(63.623047 0.7125)"/>
       <use xlink:href="#DejaVuSerif-32" transform="translate(128.154453 37.046875) scale(0.7)"/>
      </g>
     </g>
    </g>
    <g id="xtick_3">
     <g id="line2d_3">
      <g>
       <use xlink:href="#mf6a3c3b629" x="212.406661" y="203.848" style="stroke: #000000; stroke-width: 0.8"/>
      </g>
     </g>
     <g id="text_3">
      <!-- $\mathdefault{10^{3}}$ -->
      <g transform="translate(205.366661 216.92675) scale(0.08 -0.08)">
       <defs>
        <path id="DejaVuSerif-33" d="M 622 4469 
Q 988 4606 1323 4678 
Q 1659 4750 1953 4750 
Q 2638 4750 3022 4454 
Q 3406 4159 3406 3634 
Q 3406 3213 3140 2930 
Q 2875 2647 2388 2547 
Q 2963 2466 3280 2130 
Q 3597 1794 3597 1259 
Q 3597 606 3158 257 
Q 2719 -91 1894 -91 
Q 1528 -91 1179 -12 
Q 831 66 488 225 
L 488 1131 
L 838 1131 
Q 869 681 1141 450 
Q 1413 219 1906 219 
Q 2384 219 2661 495 
Q 2938 772 2938 1253 
Q 2938 1803 2653 2086 
Q 2369 2369 1819 2369 
L 1522 2369 
L 1522 2688 
L 1678 2688 
Q 2225 2688 2498 2914 
Q 2772 3141 2772 3597 
Q 2772 4006 2547 4223 
Q 2322 4441 1900 4441 
Q 1478 4441 1245 4241 
Q 1013 4041 972 3647 
L 622 3647 
L 622 4469 
z
" transform="scale(0.015625)"/>
       </defs>
       <use xlink:href="#DejaVuSerif-31" transform="translate(0 0.7125)"/>
       <use xlink:href="#DejaVuSerif-30" transform="translate(63.623047 0.7125)"/>
       <use xlink:href="#DejaVuSerif-33" transform="translate(128.154453 37.046875) scale(0.7)"/>
      </g>
     </g>
    </g>
    <g id="xtick_4">
     <g id="line2d_4">
      <g>
       <use xlink:href="#mf6a3c3b629" x="277.439925" y="203.848" style="stroke: #000000; stroke-width: 0.8"/>
      </g>
     </g>
     <g id="text_4">
      <!-- $\mathdefault{10^{4}}$ -->
      <g transform="translate(270.399925 216.92675) scale(0.08 -0.08)">
       <defs>
        <path id="DejaVuSerif-34" d="M 2234 1581 
L 2234 4063 
L 641 1581 
L 2234 1581 
z
M 3609 0 
L 1484 0 
L 1484 331 
L 2234 331 
L 2234 1247 
L 197 1247 
L 197 1588 
L 2241 4750 
L 2859 4750 
L 2859 1581 
L 3750 1581 
L 3750 1247 
L 2859 1247 
L 2859 331 
L 3609 331 
L 3609 0 
z
" transform="scale(0.015625)"/>
       </defs>
       <use xlink:href="#DejaVuSerif-31" transform="translate(0 0.7125)"/>
       <use xlink:href="#DejaVuSerif-30" transform="translate(63.623047 0.7125)"/>
       <use xlink:href="#DejaVuSerif-34" transform="translate(128.154453 37.046875) scale(0.7)"/>
      </g>
     </g>
    </g>
    <g id="xtick_5">
     <g id="line2d_5">
      <defs>
       <path id="mb83d2b8769" d="M 0 0 
L 0 2 
" style="stroke: #000000; stroke-width: 0.6"/>
      </defs>
      <g>
       <use xlink:href="#mb83d2b8769" x="48.335622" y="203.848" style="stroke: #000000; stroke-width: 0.6"/>
      </g>
     </g>
    </g>
    <g id="xtick_6">
     <g id="line2d_6">
      <g>
       <use xlink:href="#mb83d2b8769" x="56.460796" y="203.848" style="stroke: #000000; stroke-width: 0.6"/>
      </g>
     </g>
    </g>
    <g id="xtick_7">
     <g id="line2d_7">
      <g>
       <use xlink:href="#mb83d2b8769" x="62.76317" y="203.848" style="stroke: #000000; stroke-width: 0.6"/>
      </g>
     </g>
    </g>
    <g id="xtick_8">
     <g id="line2d_8">
      <g>
       <use xlink:href="#mb83d2b8769" x="67.912585" y="203.848" style="stroke: #000000; stroke-width: 0.6"/>
      </g>
     </g>
    </g>
    <g id="xtick_9">
     <g id="line2d_9">
      <g>
       <use xlink:href="#mb83d2b8769" x="72.266353" y="203.848" style="stroke: #000000; stroke-width: 0.6"/>
      </g>
     </g>
    </g>
    <g id="xtick_10">
     <g id="line2d_10">
      <g>
       <use xlink:href="#mb83d2b8769" x="76.037759" y="203.848" style="stroke: #000000; stroke-width: 0.6"/>
      </g>
     </g>
    </g>
    <g id="xtick_11">
     <g id="line2d_11">
      <g>
       <use xlink:href="#mb83d2b8769" x="79.364374" y="203.848" style="stroke: #000000; stroke-width: 0.6"/>
      </g>
     </g>
    </g>
    <g id="xtick_12">
     <g id="line2d_12">
      <g>
       <use xlink:href="#mb83d2b8769" x="101.917096" y="203.848" style="stroke: #000000; stroke-width: 0.6"/>
      </g>
     </g>
    </g>
    <g id="xtick_13">
     <g id="line2d_13">
      <g>
       <use xlink:href="#mb83d2b8769" x="113.368886" y="203.848" style="stroke: #000000; stroke-width: 0.6"/>
      </g>
     </g>
    </g>
    <g id="xtick_14">
     <g id="line2d_14">
      <g>
       <use xlink:href="#mb83d2b8769" x="121.49406" y="203.848" style="stroke: #000000; stroke-width: 0.6"/>
      </g>
     </g>
    </g>
    <g id="xtick_15">
     <g id="line2d_15">
      <g>
       <use xlink:href="#mb83d2b8769" x="127.796434" y="203.848" style="stroke: #000000; stroke-width: 0.6"/>
      </g>
     </g>
    </g>
    <g id="xtick_16">
     <g id="line2d_16">
      <g>
       <use xlink:href="#mb83d2b8769" x="132.945849" y="203.848" style="stroke: #000000; stroke-width: 0.6"/>
      </g>
     </g>
    </g>
    <g id="xtick_17">
     <g id="line2d_17">
      <g>
       <use xlink:href="#mb83d2b8769" x="137.299617" y="203.848" style="stroke: #000000; stroke-width: 0.6"/>
      </g>
     </g>
    </g>
    <g id="xtick_18">
     <g id="line2d_18">
      <g>
       <use xlink:href="#mb83d2b8769" x="141.071023" y="203.848" style="stroke: #000000; stroke-width: 0.6"/>
      </g>
     </g>
    </g>
    <g id="xtick_19">
     <g id="line2d_19">
      <g>
       <use xlink:href="#mb83d2b8769" x="144.397638" y="203.848" style="stroke: #000000; stroke-width: 0.6"/>
      </g>
     </g>
    </g>
    <g id="xtick_20">
     <g id="line2d_20">
      <g>
       <use xlink:href="#mb83d2b8769" x="166.95036" y="203.848" style="stroke: #000000; stroke-width: 0.6"/>
      </g>
     </g>
    </g>
    <g id="xtick_21">
     <g id="line2d_21">
      <g>
       <use xlink:href="#mb83d2b8769" x="178.40215" y="203.848" style="stroke: #000000; stroke-width: 0.6"/>
      </g>
     </g>
    </g>
    <g id="xtick_22">
     <g id="line2d_22">
      <g>
       <use xlink:href="#mb83d2b8769" x="186.527323" y="203.848" style="stroke: #000000; stroke-width: 0.6"/>
      </g>
     </g>
    </g>
    <g id="xtick_23">
     <g id="line2d_23">
      <g>
       <use xlink:href="#mb83d2b8769" x="192.829698" y="203.848" style="stroke: #000000; stroke-width: 0.6"/>
      </g>
     </g>
    </g>
    <g id="xtick_24">
     <g id="line2d_24">
      <g>
       <use xlink:href="#mb83d2b8769" x="197.979113" y="203.848" style="stroke: #000000; stroke-width: 0.6"/>
      </g>
     </g>
    </g>
    <g id="xtick_25">
     <g id="line2d_25">
      <g>
       <use xlink:href="#mb83d2b8769" x="202.332881" y="203.848" style="stroke: #000000; stroke-width: 0.6"/>
      </g>
     </g>
    </g>
    <g id="xtick_26">
     <g id="line2d_26">
      <g>
       <use xlink:href="#mb83d2b8769" x="206.104287" y="203.848" style="stroke: #000000; stroke-width: 0.6"/>
      </g>
     </g>
    </g>
    <g id="xtick_27">
     <g id="line2d_27">
      <g>
       <use xlink:href="#mb83d2b8769" x="209.430902" y="203.848" style="stroke: #000000; stroke-width: 0.6"/>
      </g>
     </g>
    </g>
    <g id="xtick_28">
     <g id="line2d_28">
      <g>
       <use xlink:href="#mb83d2b8769" x="231.983624" y="203.848" style="stroke: #000000; stroke-width: 0.6"/>
      </g>
     </g>
    </g>
    <g id="xtick_29">
     <g id="line2d_29">
      <g>
       <use xlink:href="#mb83d2b8769" x="243.435414" y="203.848" style="stroke: #000000; stroke-width: 0.6"/>
      </g>
     </g>
    </g>
    <g id="xtick_30">
     <g id="line2d_30">
      <g>
       <use xlink:href="#mb83d2b8769" x="251.560587" y="203.848" style="stroke: #000000; stroke-width: 0.6"/>
      </g>
     </g>
    </g>
    <g id="xtick_31">
     <g id="line2d_31">
      <g>
       <use xlink:href="#mb83d2b8769" x="257.862962" y="203.848" style="stroke: #000000; stroke-width: 0.6"/>
      </g>
     </g>
    </g>
    <g id="xtick_32">
     <g id="line2d_32">
      <g>
       <use xlink:href="#mb83d2b8769" x="263.012377" y="203.848" style="stroke: #000000; stroke-width: 0.6"/>
      </g>
     </g>
    </g>
    <g id="xtick_33">
     <g id="line2d_33">
      <g>
       <use xlink:href="#mb83d2b8769" x="267.366145" y="203.848" style="stroke: #000000; stroke-width: 0.6"/>
      </g>
     </g>
    </g>
    <g id="xtick_34">
     <g id="line2d_34">
      <g>
       <use xlink:href="#mb83d2b8769" x="271.137551" y="203.848" style="stroke: #000000; stroke-width: 0.6"/>
      </g>
     </g>
    </g>
    <g id="xtick_35">
     <g id="line2d_35">
      <g>
       <use xlink:href="#mb83d2b8769" x="274.464166" y="203.848" style="stroke: #000000; stroke-width: 0.6"/>
      </g>
     </g>
    </g>
    <g id="xtick_36">
     <g id="line2d_36">
      <g>
       <use xlink:href="#mb83d2b8769" x="297.016888" y="203.848" style="stroke: #000000; stroke-width: 0.6"/>
      </g>
     </g>
    </g>
    <g id="text_5">
     <!-- Time (ms) -->
     <g transform="translate(149.276719 229.429094) scale(0.09 -0.09)">
      <defs>
       <path id="DejaVuSerif-54" d="M 1222 0 
L 1222 331 
L 1819 331 
L 1819 4294 
L 447 4294 
L 447 3566 
L 63 3566 
L 63 4666 
L 4206 4666 
L 4206 3566 
L 3822 3566 
L 3822 4294 
L 2450 4294 
L 2450 331 
L 3047 331 
L 3047 0 
L 1222 0 
z
" transform="scale(0.015625)"/>
       <path id="DejaVuSerif-69" d="M 622 4353 
Q 622 4497 726 4603 
Q 831 4709 978 4709 
Q 1122 4709 1226 4603 
Q 1331 4497 1331 4353 
Q 1331 4206 1228 4103 
Q 1125 4000 978 4000 
Q 831 4000 726 4103 
Q 622 4206 622 4353 
z
M 1356 331 
L 1900 331 
L 1900 0 
L 231 0 
L 231 331 
L 781 331 
L 781 2988 
L 231 2988 
L 231 3322 
L 1356 3322 
L 1356 331 
z
" transform="scale(0.015625)"/>
       <path id="DejaVuSerif-6d" d="M 3316 2675 
Q 3481 3041 3739 3227 
Q 3997 3413 4341 3413 
Q 4863 3413 5119 3089 
Q 5375 2766 5375 2113 
L 5375 331 
L 5894 331 
L 5894 0 
L 4300 0 
L 4300 331 
L 4800 331 
L 4800 2047 
Q 4800 2556 4650 2772 
Q 4500 2988 4153 2988 
Q 3769 2988 3567 2697 
Q 3366 2406 3366 1850 
L 3366 331 
L 3866 331 
L 3866 0 
L 2291 0 
L 2291 331 
L 2791 331 
L 2791 2069 
Q 2791 2566 2641 2777 
Q 2491 2988 2144 2988 
Q 1759 2988 1557 2697 
Q 1356 2406 1356 1850 
L 1356 331 
L 1856 331 
L 1856 0 
L 263 0 
L 263 331 
L 781 331 
L 781 2994 
L 231 2994 
L 231 3322 
L 1356 3322 
L 1356 2731 
Q 1516 3063 1762 3238 
Q 2009 3413 2322 3413 
Q 2709 3413 2968 3220 
Q 3228 3028 3316 2675 
z
" transform="scale(0.015625)"/>
       <path id="DejaVuSerif-65" d="M 3469 1600 
L 991 1600 
L 991 1575 
Q 991 903 1244 561 
Q 1497 219 1991 219 
Q 2369 219 2611 417 
Q 2853 616 2950 1006 
L 3413 1006 
Q 3275 459 2904 184 
Q 2534 -91 1931 -91 
Q 1203 -91 761 389 
Q 319 869 319 1663 
Q 319 2450 753 2931 
Q 1188 3413 1894 3413 
Q 2647 3413 3050 2948 
Q 3453 2484 3469 1600 
z
M 2791 1931 
Q 2772 2513 2545 2808 
Q 2319 3103 1894 3103 
Q 1497 3103 1269 2806 
Q 1041 2509 991 1931 
L 2791 1931 
z
" transform="scale(0.015625)"/>
       <path id="DejaVuSerif-20" transform="scale(0.015625)"/>
       <path id="DejaVuSerif-28" d="M 2041 -997 
Q 1281 -656 893 83 
Q 506 822 506 1931 
Q 506 3044 893 3783 
Q 1281 4522 2041 4863 
L 2041 4556 
Q 1559 4225 1350 3623 
Q 1141 3022 1141 1931 
Q 1141 844 1350 242 
Q 1559 -359 2041 -691 
L 2041 -997 
z
" transform="scale(0.015625)"/>
       <path id="DejaVuSerif-73" d="M 359 184 
L 359 959 
L 691 959 
Q 703 588 923 403 
Q 1144 219 1575 219 
Q 1963 219 2166 364 
Q 2369 509 2369 788 
Q 2369 1006 2220 1140 
Q 2072 1275 1594 1428 
L 1178 1569 
Q 750 1706 558 1912 
Q 366 2119 366 2438 
Q 366 2894 700 3153 
Q 1034 3413 1625 3413 
Q 1888 3413 2178 3344 
Q 2469 3275 2778 3144 
L 2778 2419 
L 2447 2419 
Q 2434 2741 2221 2922 
Q 2009 3103 1644 3103 
Q 1281 3103 1095 2975 
Q 909 2847 909 2591 
Q 909 2381 1050 2254 
Q 1191 2128 1613 1997 
L 2069 1856 
Q 2541 1709 2748 1489 
Q 2956 1269 2956 922 
Q 2956 450 2595 179 
Q 2234 -91 1600 -91 
Q 1278 -91 972 -22 
Q 666 47 359 184 
z
" transform="scale(0.015625)"/>
       <path id="DejaVuSerif-29" d="M 453 -997 
L 453 -691 
Q 934 -359 1145 242 
Q 1356 844 1356 1931 
Q 1356 3022 1145 3623 
Q 934 4225 453 4556 
L 453 4863 
Q 1216 4522 1603 3783 
Q 1991 3044 1991 1931 
Q 1991 822 1603 83 
Q 1216 -656 453 -997 
z
" transform="scale(0.015625)"/>
      </defs>
      <use xlink:href="#DejaVuSerif-54"/>
      <use xlink:href="#DejaVuSerif-69" transform="translate(66.699219 0)"/>
      <use xlink:href="#DejaVuSerif-6d" transform="translate(98.681641 0)"/>
      <use xlink:href="#DejaVuSerif-65" transform="translate(193.505859 0)"/>
      <use xlink:href="#DejaVuSerif-20" transform="translate(252.685547 0)"/>
      <use xlink:href="#DejaVuSerif-28" transform="translate(284.472656 0)"/>
      <use xlink:href="#DejaVuSerif-6d" transform="translate(323.486328 0)"/>
      <use xlink:href="#DejaVuSerif-73" transform="translate(418.310547 0)"/>
      <use xlink:href="#DejaVuSerif-29" transform="translate(469.628906 0)"/>
     </g>
    </g>
   </g>
   <g id="matplotlib.axis_2">
    <g id="ytick_1">
     <g id="line2d_37">
      <defs>
       <path id="ma3247a81f1" d="M 0 0 
L -3.5 0 
" style="stroke: #000000; stroke-width: 0.8"/>
      </defs>
      <g>
       <use xlink:href="#ma3247a81f1" x="40.59625" y="169.360755" style="stroke: #000000; stroke-width: 0.8"/>
      </g>
     </g>
     <g id="text_6">
      <!-- −4.5 -->
      <g transform="translate(14.17 172.40013) scale(0.08 -0.08)">
       <defs>
        <path id="DejaVuSerif-2212" d="M 678 2259 
L 4684 2259 
L 4684 1753 
L 678 1753 
L 678 2259 
z
" transform="scale(0.015625)"/>
        <path id="DejaVuSerif-2e" d="M 603 325 
Q 603 500 722 622 
Q 841 744 1019 744 
Q 1191 744 1312 622 
Q 1434 500 1434 325 
Q 1434 153 1312 31 
Q 1191 -91 1019 -91 
Q 841 -91 722 29 
Q 603 150 603 325 
z
" transform="scale(0.015625)"/>
        <path id="DejaVuSerif-35" d="M 3219 4666 
L 3219 4153 
L 1081 4153 
L 1081 2816 
Q 1244 2928 1461 2984 
Q 1678 3041 1947 3041 
Q 2703 3041 3140 2622 
Q 3578 2203 3578 1478 
Q 3578 738 3136 323 
Q 2694 -91 1894 -91 
Q 1572 -91 1234 -12 
Q 897 66 544 225 
L 544 1131 
L 897 1131 
Q 925 688 1179 453 
Q 1434 219 1894 219 
Q 2388 219 2653 544 
Q 2919 869 2919 1478 
Q 2919 2084 2655 2407 
Q 2391 2731 1894 2731 
Q 1613 2731 1398 2631 
Q 1184 2531 1019 2322 
L 750 2322 
L 750 4666 
L 3219 4666 
z
" transform="scale(0.015625)"/>
       </defs>
       <use xlink:href="#DejaVuSerif-2212"/>
       <use xlink:href="#DejaVuSerif-34" transform="translate(83.789062 0)"/>
       <use xlink:href="#DejaVuSerif-2e" transform="translate(147.412109 0)"/>
       <use xlink:href="#DejaVuSerif-35" transform="translate(179.199219 0)"/>
      </g>
     </g>
    </g>
    <g id="ytick_2">
     <g id="line2d_38">
      <g>
       <use xlink:href="#ma3247a81f1" x="40.59625" y="128.376291" style="stroke: #000000; stroke-width: 0.8"/>
      </g>
     </g>
     <g id="text_7">
      <!-- −4.0 -->
      <g transform="translate(14.17 131.415666) scale(0.08 -0.08)">
       <use xlink:href="#DejaVuSerif-2212"/>
       <use xlink:href="#DejaVuSerif-34" transform="translate(83.789062 0)"/>
       <use xlink:href="#DejaVuSerif-2e" transform="translate(147.412109 0)"/>
       <use xlink:href="#DejaVuSerif-30" transform="translate(179.199219 0)"/>
      </g>
     </g>
    </g>
    <g id="ytick_3">
     <g id="line2d_39">
      <g>
       <use xlink:href="#ma3247a81f1" x="40.59625" y="87.391827" style="stroke: #000000; stroke-width: 0.8"/>
      </g>
     </g>
     <g id="text_8">
      <!-- −3.5 -->
      <g transform="translate(14.17 90.431202) scale(0.08 -0.08)">
       <use xlink:href="#DejaVuSerif-2212"/>
       <use xlink:href="#DejaVuSerif-33" transform="translate(83.789062 0)"/>
       <use xlink:href="#DejaVuSerif-2e" transform="translate(147.412109 0)"/>
       <use xlink:href="#DejaVuSerif-35" transform="translate(179.199219 0)"/>
      </g>
     </g>
    </g>
    <g id="ytick_4">
     <g id="line2d_40">
      <g>
       <use xlink:href="#ma3247a81f1" x="40.59625" y="46.407363" style="stroke: #000000; stroke-width: 0.8"/>
      </g>
     </g>
     <g id="text_9">
      <!-- −3.0 -->
      <g transform="translate(14.17 49.446738) scale(0.08 -0.08)">
       <use xlink:href="#DejaVuSerif-2212"/>
       <use xlink:href="#DejaVuSerif-33" transform="translate(83.789062 0)"/>
       <use xlink:href="#DejaVuSerif-2e" transform="translate(147.412109 0)"/>
       <use xlink:href="#DejaVuSerif-30" transform="translate(179.199219 0)"/>
      </g>
     </g>
    </g>
    <g id="ytick_5">
     <g id="line2d_41">
      <g>
       <use xlink:href="#ma3247a81f1" x="40.59625" y="5.422899" style="stroke: #000000; stroke-width: 0.8"/>
      </g>
     </g>
     <g id="text_10">
      <!-- −2.5 -->
      <g transform="translate(14.17 8.462274) scale(0.08 -0.08)">
       <use xlink:href="#DejaVuSerif-2212"/>
       <use xlink:href="#DejaVuSerif-32" transform="translate(83.789062 0)"/>
       <use xlink:href="#DejaVuSerif-2e" transform="translate(147.412109 0)"/>
       <use xlink:href="#DejaVuSerif-35" transform="translate(179.199219 0)"/>
      </g>
     </g>
    </g>
    <g id="text_11">
     <!-- Mean Euler error ($\log_{10}$) -->
     <g transform="translate(8.28 157.634) rotate(-90) scale(0.09 -0.09)">
      <defs>
       <path id="DejaVuSerif-4d" d="M 353 0 
L 353 331 
L 947 331 
L 947 4331 
L 319 4331 
L 319 4666 
L 1678 4666 
L 3316 1344 
L 4953 4666 
L 6228 4666 
L 6228 4331 
L 5606 4331 
L 5606 331 
L 6203 331 
L 6203 0 
L 4378 0 
L 4378 331 
L 4972 331 
L 4972 3938 
L 3372 684 
L 2931 684 
L 1331 3938 
L 1331 331 
L 1925 331 
L 1925 0 
L 353 0 
z
" transform="scale(0.015625)"/>
       <path id="DejaVuSerif-61" d="M 2547 1044 
L 2547 1747 
L 1806 1747 
Q 1378 1747 1168 1562 
Q 959 1378 959 997 
Q 959 650 1171 447 
Q 1384 244 1747 244 
Q 2106 244 2326 466 
Q 2547 688 2547 1044 
z
M 3122 2075 
L 3122 331 
L 3634 331 
L 3634 0 
L 2547 0 
L 2547 359 
Q 2356 128 2106 18 
Q 1856 -91 1522 -91 
Q 969 -91 644 203 
Q 319 497 319 997 
Q 319 1513 691 1797 
Q 1063 2081 1741 2081 
L 2547 2081 
L 2547 2309 
Q 2547 2688 2317 2895 
Q 2088 3103 1672 3103 
Q 1328 3103 1125 2947 
Q 922 2791 872 2484 
L 575 2484 
L 575 3156 
Q 875 3284 1158 3348 
Q 1441 3413 1709 3413 
Q 2400 3413 2761 3070 
Q 3122 2728 3122 2075 
z
" transform="scale(0.015625)"/>
       <path id="DejaVuSerif-6e" d="M 263 0 
L 263 331 
L 781 331 
L 781 2988 
L 231 2988 
L 231 3322 
L 1356 3322 
L 1356 2731 
Q 1516 3069 1770 3241 
Q 2025 3413 2363 3413 
Q 2913 3413 3172 3097 
Q 3431 2781 3431 2113 
L 3431 331 
L 3944 331 
L 3944 0 
L 2356 0 
L 2356 331 
L 2853 331 
L 2853 1931 
Q 2853 2541 2703 2767 
Q 2553 2994 2175 2994 
Q 1775 2994 1565 2701 
Q 1356 2409 1356 1850 
L 1356 331 
L 1856 331 
L 1856 0 
L 263 0 
z
" transform="scale(0.015625)"/>
       <path id="DejaVuSerif-45" d="M 353 0 
L 353 331 
L 947 331 
L 947 4331 
L 353 4331 
L 353 4666 
L 4109 4666 
L 4109 3628 
L 3725 3628 
L 3725 4281 
L 1581 4281 
L 1581 2719 
L 3109 2719 
L 3109 3303 
L 3494 3303 
L 3494 1753 
L 3109 1753 
L 3109 2338 
L 1581 2338 
L 1581 384 
L 3775 384 
L 3775 1038 
L 4159 1038 
L 4159 0 
L 353 0 
z
" transform="scale(0.015625)"/>
       <path id="DejaVuSerif-75" d="M 2266 3322 
L 3341 3322 
L 3341 331 
L 3884 331 
L 3884 0 
L 2766 0 
L 2766 588 
Q 2606 256 2353 82 
Q 2100 -91 1766 -91 
Q 1213 -91 952 223 
Q 691 538 691 1209 
L 691 2988 
L 172 2988 
L 172 3322 
L 1269 3322 
L 1269 1388 
Q 1269 781 1417 556 
Q 1566 331 1947 331 
Q 2347 331 2556 625 
Q 2766 919 2766 1478 
L 2766 2988 
L 2266 2988 
L 2266 3322 
z
" transform="scale(0.015625)"/>
       <path id="DejaVuSerif-6c" d="M 1313 331 
L 1856 331 
L 1856 0 
L 184 0 
L 184 331 
L 738 331 
L 738 4531 
L 184 4531 
L 184 4863 
L 1313 4863 
L 1313 331 
z
" transform="scale(0.015625)"/>
       <path id="DejaVuSerif-72" d="M 3059 3328 
L 3059 2497 
L 2728 2497 
Q 2713 2744 2591 2866 
Q 2469 2988 2234 2988 
Q 1809 2988 1582 2694 
Q 1356 2400 1356 1850 
L 1356 331 
L 2022 331 
L 2022 0 
L 263 0 
L 263 331 
L 781 331 
L 781 2994 
L 231 2994 
L 231 3322 
L 1356 3322 
L 1356 2731 
Q 1525 3078 1790 3245 
Q 2056 3413 2438 3413 
Q 2578 3413 2733 3391 
Q 2888 3369 3059 3328 
z
" transform="scale(0.015625)"/>
       <path id="DejaVuSerif-6f" d="M 1925 219 
Q 2388 219 2623 584 
Q 2859 950 2859 1663 
Q 2859 2375 2623 2739 
Q 2388 3103 1925 3103 
Q 1463 3103 1227 2739 
Q 991 2375 991 1663 
Q 991 950 1228 584 
Q 1466 219 1925 219 
z
M 1925 -91 
Q 1200 -91 759 389 
Q 319 869 319 1663 
Q 319 2456 758 2934 
Q 1197 3413 1925 3413 
Q 2653 3413 3092 2934 
Q 3531 2456 3531 1663 
Q 3531 869 3092 389 
Q 2653 -91 1925 -91 
z
" transform="scale(0.015625)"/>
       <path id="Cmr10-6c" d="M 197 0 
L 197 225 
Q 416 225 556 259 
Q 697 294 697 428 
L 697 3788 
Q 697 3959 645 4036 
Q 594 4113 497 4130 
Q 400 4147 197 4147 
L 197 4372 
L 1147 4441 
L 1147 428 
Q 1147 294 1287 259 
Q 1428 225 1644 225 
L 1644 0 
L 197 0 
z
" transform="scale(0.015625)"/>
       <path id="Cmr10-6f" d="M 1600 -72 
Q 1216 -72 887 123 
Q 559 319 368 647 
Q 178 975 178 1363 
Q 178 1656 283 1928 
Q 388 2200 583 2414 
Q 778 2628 1037 2748 
Q 1297 2869 1600 2869 
Q 1994 2869 2317 2661 
Q 2641 2453 2828 2104 
Q 3016 1756 3016 1363 
Q 3016 978 2825 648 
Q 2634 319 2307 123 
Q 1981 -72 1600 -72 
z
M 1600 116 
Q 2113 116 2284 487 
Q 2456 859 2456 1434 
Q 2456 1756 2422 1967 
Q 2388 2178 2272 2350 
Q 2200 2456 2089 2536 
Q 1978 2616 1854 2658 
Q 1731 2700 1600 2700 
Q 1400 2700 1220 2609 
Q 1041 2519 922 2350 
Q 803 2169 770 1951 
Q 738 1734 738 1434 
Q 738 1075 800 789 
Q 863 503 1052 309 
Q 1241 116 1600 116 
z
" transform="scale(0.015625)"/>
       <path id="Cmr10-67" d="M 178 -500 
Q 178 -272 343 -101 
Q 509 69 738 141 
Q 609 238 542 384 
Q 475 531 475 697 
Q 475 997 666 1228 
Q 372 1516 372 1888 
Q 372 2088 458 2263 
Q 544 2438 697 2566 
Q 850 2694 1037 2761 
Q 1225 2828 1422 2828 
Q 1803 2828 2106 2606 
Q 2238 2747 2417 2823 
Q 2597 2900 2791 2900 
Q 2928 2900 3015 2801 
Q 3103 2703 3103 2566 
Q 3103 2488 3043 2428 
Q 2984 2369 2906 2369 
Q 2825 2369 2765 2428 
Q 2706 2488 2706 2566 
Q 2706 2684 2784 2731 
Q 2453 2731 2216 2503 
Q 2331 2388 2401 2220 
Q 2472 2053 2472 1888 
Q 2472 1616 2322 1398 
Q 2172 1181 1926 1061 
Q 1681 941 1422 941 
Q 1072 941 781 1131 
Q 691 1006 691 850 
Q 691 681 802 554 
Q 913 428 1081 428 
L 1606 428 
Q 1988 428 2294 359 
Q 2600 291 2808 84 
Q 3016 -122 3016 -500 
Q 3016 -781 2778 -967 
Q 2541 -1153 2211 -1236 
Q 1881 -1319 1600 -1319 
Q 1316 -1319 984 -1236 
Q 653 -1153 415 -967 
Q 178 -781 178 -500 
z
M 538 -500 
Q 538 -716 713 -861 
Q 888 -1006 1134 -1076 
Q 1381 -1147 1600 -1147 
Q 1816 -1147 2062 -1076 
Q 2309 -1006 2482 -861 
Q 2656 -716 2656 -500 
Q 2656 -166 2350 -67 
Q 2044 31 1606 31 
L 1081 31 
Q 934 31 811 -39 
Q 688 -109 613 -236 
Q 538 -363 538 -500 
z
M 1422 1113 
Q 1966 1113 1966 1888 
Q 1966 2222 1850 2439 
Q 1734 2656 1422 2656 
Q 1109 2656 993 2439 
Q 878 2222 878 1888 
Q 878 1675 922 1503 
Q 966 1331 1084 1222 
Q 1203 1113 1422 1113 
z
" transform="scale(0.015625)"/>
       <path id="Cmr10-31" d="M 594 0 
L 594 225 
Q 1394 225 1394 428 
L 1394 3788 
Q 1063 3628 556 3628 
L 556 3853 
Q 1341 3853 1741 4263 
L 1831 4263 
Q 1853 4263 1873 4245 
Q 1894 4228 1894 4206 
L 1894 428 
Q 1894 225 2694 225 
L 2694 0 
L 594 0 
z
" transform="scale(0.015625)"/>
       <path id="Cmr10-30" d="M 1600 -141 
Q 816 -141 533 504 
Q 250 1150 250 2041 
Q 250 2597 351 3087 
Q 453 3578 754 3920 
Q 1056 4263 1600 4263 
Q 2022 4263 2290 4056 
Q 2559 3850 2700 3523 
Q 2841 3197 2892 2823 
Q 2944 2450 2944 2041 
Q 2944 1491 2842 1011 
Q 2741 531 2444 195 
Q 2147 -141 1600 -141 
z
M 1600 25 
Q 1956 25 2131 390 
Q 2306 756 2347 1200 
Q 2388 1644 2388 2144 
Q 2388 2625 2347 3031 
Q 2306 3438 2132 3767 
Q 1959 4097 1600 4097 
Q 1238 4097 1063 3765 
Q 888 3434 847 3029 
Q 806 2625 806 2144 
Q 806 1788 823 1472 
Q 841 1156 916 820 
Q 991 484 1158 254 
Q 1325 25 1600 25 
z
" transform="scale(0.015625)"/>
      </defs>
      <use xlink:href="#DejaVuSerif-4d" transform="translate(0 0.015625)"/>
      <use xlink:href="#DejaVuSerif-65" transform="translate(102.392578 0.015625)"/>
      <use xlink:href="#DejaVuSerif-61" transform="translate(161.572266 0.015625)"/>
      <use xlink:href="#DejaVuSerif-6e" transform="translate(221.191406 0.015625)"/>
      <use xlink:href="#DejaVuSerif-20" transform="translate(285.595703 0.015625)"/>
      <use xlink:href="#DejaVuSerif-45" transform="translate(317.382812 0.015625)"/>
      <use xlink:href="#DejaVuSerif-75" transform="translate(390.380859 0.015625)"/>
      <use xlink:href="#DejaVuSerif-6c" transform="translate(454.785156 0.015625)"/>
      <use xlink:href="#DejaVuSerif-65" transform="translate(486.767578 0.015625)"/>
      <use xlink:href="#DejaVuSerif-72" transform="translate(545.947266 0.015625)"/>
      <use xlink:href="#DejaVuSerif-20" transform="translate(593.75 0.015625)"/>
      <use xlink:href="#DejaVuSerif-65" transform="translate(625.537109 0.015625)"/>
      <use xlink:href="#DejaVuSerif-72" transform="translate(684.716797 0.015625)"/>
      <use xlink:href="#DejaVuSerif-72" transform="translate(732.519531 0.015625)"/>
      <use xlink:href="#DejaVuSerif-6f" transform="translate(780.322266 0.015625)"/>
      <use xlink:href="#DejaVuSerif-72" transform="translate(840.527344 0.015625)"/>
      <use xlink:href="#DejaVuSerif-20" transform="translate(888.330078 0.015625)"/>
      <use xlink:href="#DejaVuSerif-28" transform="translate(920.117188 0.015625)"/>
      <use xlink:href="#Cmr10-6c" transform="translate(959.130859 0.015625)"/>
      <use xlink:href="#Cmr10-6f" transform="translate(986.816406 0.015625)"/>
      <use xlink:href="#Cmr10-67" transform="translate(1036.816406 0.015625)"/>
      <use xlink:href="#Cmr10-31" transform="translate(1091.280547 -16.990625) scale(0.7)"/>
      <use xlink:href="#Cmr10-30" transform="translate(1126.280547 -16.990625) scale(0.7)"/>
      <use xlink:href="#DejaVuSerif-29" transform="translate(1182.290345 0.015625)"/>
     </g>
    </g>
   </g>
   <g id="line2d_42">
    <defs>
     <path id="m302bf2fe76" d="M 0 -3.4 
L -0.763348 -1.050658 
L -3.233592 -1.050658 
L -1.235122 0.401316 
L -1.99847 2.750658 
L -0 1.298684 
L 1.99847 2.750658 
L 1.235122 0.401316 
L 3.233592 -1.050658 
L 0.763348 -1.050658 
z
" style="stroke: #3498db; stroke-linejoin: bevel"/>
    </defs>
    <g clip-path="url(#pfd44ab2efe)">
     <use xlink:href="#m302bf2fe76" x="52.557159" y="36.43438" style="fill: #3498db; stroke: #3498db; stroke-linejoin: bevel"/>
    </g>
   </g>
   <g id="line2d_43">
    <defs>
     <path id="mc79ed15962" d="M 0 -3.7 
L -0.830702 -1.143363 
L -3.518909 -1.143363 
L -1.344104 0.436726 
L -2.174805 2.993363 
L -0 1.413274 
L 2.174805 2.993363 
L 1.344104 0.436726 
L 3.518909 -1.143363 
L 0.830702 -1.143363 
z
" style="stroke: #3498db; stroke-linejoin: bevel"/>
    </defs>
    <g clip-path="url(#pfd44ab2efe)">
     <use xlink:href="#mc79ed15962" x="61.537661" y="76.957125" style="fill: #3498db; stroke: #3498db; stroke-linejoin: bevel"/>
    </g>
   </g>
   <g id="line2d_44">
    <defs>
     <path id="mb143138440" d="M 0 -4 
L -0.898056 -1.236068 
L -3.804226 -1.236068 
L -1.453085 0.472136 
L -2.351141 3.236068 
L -0 1.527864 
L 2.351141 3.236068 
L 1.453085 0.472136 
L 3.804226 -1.236068 
L 0.898056 -1.236068 
z
" style="stroke: #3498db; stroke-linejoin: bevel"/>
    </defs>
    <g clip-path="url(#pfd44ab2efe)">
     <use xlink:href="#mb143138440" x="64.984815" y="101.600141" style="fill: #3498db; stroke: #3498db; stroke-linejoin: bevel"/>
    </g>
   </g>
   <g id="line2d_45">
    <defs>
     <path id="m265bc4d189" d="M 0 -4.3 
L -0.96541 -1.328773 
L -4.089543 -1.328773 
L -1.562066 0.507546 
L -2.527477 3.478773 
L -0 1.642454 
L 2.527477 3.478773 
L 1.562066 0.507546 
L 4.089543 -1.328773 
L 0.96541 -1.328773 
z
" style="stroke: #3498db; stroke-linejoin: bevel"/>
    </defs>
    <g clip-path="url(#pfd44ab2efe)">
     <use xlink:href="#m265bc4d189" x="69.798262" y="116.499285" style="fill: #3498db; stroke: #3498db; stroke-linejoin: bevel"/>
    </g>
   </g>
   <g id="line2d_46">
    <defs>
     <path id="m1a029ed5eb" d="M 0 -5.5 
L -1.234827 -1.699593 
L -5.230811 -1.699593 
L -1.997992 0.649187 
L -3.232819 4.449593 
L -0 2.100813 
L 3.232819 4.449593 
L 1.997992 0.649187 
L 5.230811 -1.699593 
L 1.234827 -1.699593 
z
" style="stroke: #3498db; stroke-linejoin: bevel"/>
    </defs>
    <g clip-path="url(#pfd44ab2efe)">
     <use xlink:href="#m1a029ed5eb" x="85.471951" y="153.346602" style="fill: #3498db; stroke: #3498db; stroke-linejoin: bevel"/>
    </g>
   </g>
   <g id="line2d_47">
    <defs>
     <path id="m023b7168b5" d="M 0 -7 
L -1.571598 -2.163119 
L -6.657396 -2.163119 
L -2.542899 0.826238 
L -4.114497 5.663119 
L -0 2.673762 
L 4.114497 5.663119 
L 2.542899 0.826238 
L 6.657396 -2.163119 
L 1.571598 -2.163119 
z
" style="stroke: #3498db; stroke-linejoin: bevel"/>
    </defs>
    <g clip-path="url(#pfd44ab2efe)">
     <use xlink:href="#m023b7168b5" x="97.240312" y="177.745276" style="fill: #3498db; stroke: #3498db; stroke-linejoin: bevel"/>
    </g>
   </g>
   <g id="line2d_48">
    <defs>
     <path id="m154b6a7df3" d="M 0 -8.5 
L -1.908369 -2.626644 
L -8.08398 -2.626644 
L -3.087806 1.003289 
L -4.996175 6.876644 
L -0 3.246711 
L 4.996175 6.876644 
L 3.087806 1.003289 
L 8.08398 -2.626644 
L 1.908369 -2.626644 
z
" style="stroke: #3498db; stroke-linejoin: bevel"/>
    </defs>
    <g clip-path="url(#pfd44ab2efe)">
     <use xlink:href="#m154b6a7df3" x="102.902917" y="194.184314" style="fill: #3498db; stroke: #3498db; stroke-linejoin: bevel"/>
    </g>
   </g>
   <g id="line2d_49">
    <path d="M 52.557159 36.43438 
L 61.537661 76.957125 
L 64.984815 101.600141 
L 69.798262 116.499285 
L 85.471951 153.346602 
L 97.240312 177.745276 
L 102.902917 194.184314 
" clip-path="url(#pfd44ab2efe)" style="fill: none; stroke: #3498db; stroke-width: 1.2; stroke-linecap: square"/>
   </g>
   <g id="line2d_50">
    <defs>
     <path id="m4954dcddb5" d="M -3.5 3.5 
L 3.5 3.5 
L 3.5 -3.5 
L -3.5 -3.5 
z
" style="stroke: #27ae60; stroke-width: 1.5; stroke-linejoin: miter"/>
    </defs>
    <g clip-path="url(#pfd44ab2efe)">
     <use xlink:href="#m4954dcddb5" x="150.184407" y="10.640364" style="fill: #ffffff; stroke: #27ae60; stroke-width: 1.5; stroke-linejoin: miter"/>
    </g>
   </g>
   <g id="line2d_51">
    <defs>
     <path id="maf97d12bd8" d="M -3.9 3.9 
L 3.9 3.9 
L 3.9 -3.9 
L -3.9 -3.9 
z
" style="stroke: #27ae60; stroke-width: 1.5; stroke-linejoin: miter"/>
    </defs>
    <g clip-path="url(#pfd44ab2efe)">
     <use xlink:href="#maf97d12bd8" x="154.790395" y="25.501875" style="fill: #ffffff; stroke: #27ae60; stroke-width: 1.5; stroke-linejoin: miter"/>
    </g>
   </g>
   <g id="line2d_52">
    <defs>
     <path id="m9d00b7c34c" d="M -4.5 4.5 
L 4.5 4.5 
L 4.5 -4.5 
L -4.5 -4.5 
z
" style="stroke: #27ae60; stroke-width: 1.5; stroke-linejoin: miter"/>
    </defs>
    <g clip-path="url(#pfd44ab2efe)">
     <use xlink:href="#m9d00b7c34c" x="167.202809" y="38.932848" style="fill: #ffffff; stroke: #27ae60; stroke-width: 1.5; stroke-linejoin: miter"/>
    </g>
   </g>
   <g id="line2d_53">
    <defs>
     <path id="ma18f444e41" d="M -5.5 5.5 
L 5.5 5.5 
L 5.5 -5.5 
L -5.5 -5.5 
z
" style="stroke: #27ae60; stroke-width: 1.5; stroke-linejoin: miter"/>
    </defs>
    <g clip-path="url(#pfd44ab2efe)">
     <use xlink:href="#ma18f444e41" x="174.132362" y="58.947604" style="fill: #ffffff; stroke: #27ae60; stroke-width: 1.5; stroke-linejoin: miter"/>
    </g>
   </g>
   <g id="line2d_54">
    <defs>
     <path id="m815025a5df" d="M -7.5 7.5 
L 7.5 7.5 
L 7.5 -7.5 
L -7.5 -7.5 
z
" style="stroke: #27ae60; stroke-width: 1.5; stroke-linejoin: miter"/>
    </defs>
    <g clip-path="url(#pfd44ab2efe)">
     <use xlink:href="#m815025a5df" x="186.226129" y="88.735891" style="fill: #ffffff; stroke: #27ae60; stroke-width: 1.5; stroke-linejoin: miter"/>
    </g>
   </g>
   <g id="line2d_55">
    <path d="M 150.184407 10.640364 
L 154.790395 25.501875 
L 167.202809 38.932848 
L 174.132362 58.947604 
L 186.226129 88.735891 
" clip-path="url(#pfd44ab2efe)" style="fill: none; stroke-dasharray: 4.44,1.92; stroke-dashoffset: 0; stroke: #27ae60; stroke-width: 1.2"/>
   </g>
   <g id="line2d_56">
    <defs>
     <path id="madf3fa25af" d="M -3.1 3.1 
L 3.1 3.1 
L 3.1 -3.1 
L -3.1 -3.1 
z
" style="stroke: #27ae60; stroke-linejoin: miter"/>
    </defs>
    <g clip-path="url(#pfd44ab2efe)">
     <use xlink:href="#madf3fa25af" x="211.019027" y="136.75257" style="fill: #27ae60; stroke: #27ae60; stroke-linejoin: miter"/>
    </g>
   </g>
   <g id="line2d_57">
    <defs>
     <path id="m21357cc753" d="M -3.5 3.5 
L 3.5 3.5 
L 3.5 -3.5 
L -3.5 -3.5 
z
" style="stroke: #27ae60; stroke-linejoin: miter"/>
    </defs>
    <g clip-path="url(#pfd44ab2efe)">
     <use xlink:href="#m21357cc753" x="217.53071" y="153.918687" style="fill: #27ae60; stroke: #27ae60; stroke-linejoin: miter"/>
    </g>
   </g>
   <g id="line2d_58">
    <defs>
     <path id="mca19c258c2" d="M -3.9 3.9 
L 3.9 3.9 
L 3.9 -3.9 
L -3.9 -3.9 
z
" style="stroke: #27ae60; stroke-linejoin: miter"/>
    </defs>
    <g clip-path="url(#pfd44ab2efe)">
     <use xlink:href="#mca19c258c2" x="223.293275" y="165.475691" style="fill: #27ae60; stroke: #27ae60; stroke-linejoin: miter"/>
    </g>
   </g>
   <g id="line2d_59">
    <defs>
     <path id="mfb5f5dc00d" d="M -4.5 4.5 
L 4.5 4.5 
L 4.5 -4.5 
L -4.5 -4.5 
z
" style="stroke: #27ae60; stroke-linejoin: miter"/>
    </defs>
    <g clip-path="url(#pfd44ab2efe)">
     <use xlink:href="#mfb5f5dc00d" x="229.049995" y="178.293691" style="fill: #27ae60; stroke: #27ae60; stroke-linejoin: miter"/>
    </g>
   </g>
   <g id="line2d_60">
    <defs>
     <path id="m26bd908154" d="M -5.5 5.5 
L 5.5 5.5 
L 5.5 -5.5 
L -5.5 -5.5 
z
" style="stroke: #27ae60; stroke-linejoin: miter"/>
    </defs>
    <g clip-path="url(#pfd44ab2efe)">
     <use xlink:href="#m26bd908154" x="238.192584" y="194.647636" style="fill: #27ae60; stroke: #27ae60; stroke-linejoin: miter"/>
    </g>
   </g>
   <g id="line2d_61">
    <path d="M 211.019027 136.75257 
L 217.53071 153.918687 
L 223.293275 165.475691 
L 229.049995 178.293691 
L 238.192584 194.647636 
" clip-path="url(#pfd44ab2efe)" style="fill: none; stroke: #27ae60; stroke-opacity: 0.5; stroke-width: 1.2; stroke-linecap: square"/>
   </g>
   <g id="line2d_62">
    <defs>
     <path id="m1cb31ae14b" d="M 0 3.5 
C 0.928211 3.5 1.81853 3.131218 2.474874 2.474874 
C 3.131218 1.81853 3.5 0.928211 3.5 0 
C 3.5 -0.928211 3.131218 -1.81853 2.474874 -2.474874 
C 1.81853 -3.131218 0.928211 -3.5 0 -3.5 
C -0.928211 -3.5 -1.81853 -3.131218 -2.474874 -2.474874 
C -3.131218 -1.81853 -3.5 -0.928211 -3.5 0 
C -3.5 0.928211 -3.131218 1.81853 -2.474874 2.474874 
C -1.81853 3.131218 -0.928211 3.5 0 3.5 
z
" style="stroke: #e74c3c; stroke-width: 1.5"/>
    </defs>
    <g clip-path="url(#pfd44ab2efe)">
     <use xlink:href="#m1cb31ae14b" x="201.670128" y="64.496432" style="fill: #ffffff; stroke: #e74c3c; stroke-width: 1.5"/>
    </g>
   </g>
   <g id="line2d_63">
    <defs>
     <path id="m7d992ab3c5" d="M 0 4.5 
C 1.193414 4.5 2.338109 4.025852 3.181981 3.181981 
C 4.025852 2.338109 4.5 1.193414 4.5 0 
C 4.5 -1.193414 4.025852 -2.338109 3.181981 -3.181981 
C 2.338109 -4.025852 1.193414 -4.5 0 -4.5 
C -1.193414 -4.5 -2.338109 -4.025852 -3.181981 -3.181981 
C -4.025852 -2.338109 -4.5 -1.193414 -4.5 0 
C -4.5 1.193414 -4.025852 2.338109 -3.181981 3.181981 
C -2.338109 4.025852 -1.193414 4.5 0 4.5 
z
" style="stroke: #e74c3c; stroke-width: 1.5"/>
    </defs>
    <g clip-path="url(#pfd44ab2efe)">
     <use xlink:href="#m7d992ab3c5" x="211.81012" y="65.303793" style="fill: #ffffff; stroke: #e74c3c; stroke-width: 1.5"/>
    </g>
   </g>
   <g id="line2d_64">
    <defs>
     <path id="m29b0c494e3" d="M 0 5.5 
C 1.458617 5.5 2.857689 4.920485 3.889087 3.889087 
C 4.920485 2.857689 5.5 1.458617 5.5 0 
C 5.5 -1.458617 4.920485 -2.857689 3.889087 -3.889087 
C 2.857689 -4.920485 1.458617 -5.5 0 -5.5 
C -1.458617 -5.5 -2.857689 -4.920485 -3.889087 -3.889087 
C -4.920485 -2.857689 -5.5 -1.458617 -5.5 0 
C -5.5 1.458617 -4.920485 2.857689 -3.889087 3.889087 
C -2.857689 4.920485 -1.458617 5.5 0 5.5 
z
" style="stroke: #e74c3c; stroke-width: 1.5"/>
    </defs>
    <g clip-path="url(#pfd44ab2efe)">
     <use xlink:href="#m29b0c494e3" x="217.633341" y="69.584598" style="fill: #ffffff; stroke: #e74c3c; stroke-width: 1.5"/>
    </g>
   </g>
   <g id="line2d_65">
    <defs>
     <path id="m7142e5eeff" d="M 0 7.5 
C 1.989023 7.5 3.896849 6.709753 5.303301 5.303301 
C 6.709753 3.896849 7.5 1.989023 7.5 0 
C 7.5 -1.989023 6.709753 -3.896849 5.303301 -5.303301 
C 3.896849 -6.709753 1.989023 -7.5 0 -7.5 
C -1.989023 -7.5 -3.896849 -6.709753 -5.303301 -5.303301 
C -6.709753 -3.896849 -7.5 -1.989023 -7.5 0 
C -7.5 1.989023 -6.709753 3.896849 -5.303301 5.303301 
C -3.896849 6.709753 -1.989023 7.5 0 7.5 
z
" style="stroke: #e74c3c; stroke-width: 1.5"/>
    </defs>
    <g clip-path="url(#pfd44ab2efe)">
     <use xlink:href="#m7142e5eeff" x="229.88816" y="77.362958" style="fill: #ffffff; stroke: #e74c3c; stroke-width: 1.5"/>
    </g>
   </g>
   <g id="line2d_66">
    <defs>
     <path id="m1c429a4134" d="M 0 9.5 
C 2.519429 9.5 4.936009 8.49902 6.717514 6.717514 
C 8.49902 4.936009 9.5 2.519429 9.5 0 
C 9.5 -2.519429 8.49902 -4.936009 6.717514 -6.717514 
C 4.936009 -8.49902 2.519429 -9.5 0 -9.5 
C -2.519429 -9.5 -4.936009 -8.49902 -6.717514 -6.717514 
C -8.49902 -4.936009 -9.5 -2.519429 -9.5 0 
C -9.5 2.519429 -8.49902 4.936009 -6.717514 6.717514 
C -4.936009 8.49902 -2.519429 9.5 0 9.5 
z
" style="stroke: #e74c3c; stroke-width: 1.5"/>
    </defs>
    <g clip-path="url(#pfd44ab2efe)">
     <use xlink:href="#m1c429a4134" x="237.52968" y="84.791038" style="fill: #ffffff; stroke: #e74c3c; stroke-width: 1.5"/>
    </g>
   </g>
   <g id="line2d_67">
    <path d="M 201.670128 64.496432 
L 211.81012 65.303793 
L 217.633341 69.584598 
L 229.88816 77.362958 
L 237.52968 84.791038 
" clip-path="url(#pfd44ab2efe)" style="fill: none; stroke-dasharray: 4.44,1.92; stroke-dashoffset: 0; stroke: #e74c3c; stroke-width: 1.2"/>
   </g>
   <g id="line2d_68">
    <defs>
     <path id="m076d4cdecd" d="M 0 3.5 
C 0.928211 3.5 1.81853 3.131218 2.474874 2.474874 
C 3.131218 1.81853 3.5 0.928211 3.5 0 
C 3.5 -0.928211 3.131218 -1.81853 2.474874 -2.474874 
C 1.81853 -3.131218 0.928211 -3.5 0 -3.5 
C -0.928211 -3.5 -1.81853 -3.131218 -2.474874 -2.474874 
C -3.131218 -1.81853 -3.5 -0.928211 -3.5 0 
C -3.5 0.928211 -3.131218 1.81853 -2.474874 2.474874 
C -1.81853 3.131218 -0.928211 3.5 0 3.5 
z
" style="stroke: #e74c3c"/>
    </defs>
    <g clip-path="url(#pfd44ab2efe)">
     <use xlink:href="#m076d4cdecd" x="254.716182" y="72.784917" style="fill: #e74c3c; stroke: #e74c3c"/>
    </g>
   </g>
   <g id="line2d_69">
    <defs>
     <path id="m5919d67e15" d="M 0 4.5 
C 1.193414 4.5 2.338109 4.025852 3.181981 3.181981 
C 4.025852 2.338109 4.5 1.193414 4.5 0 
C 4.5 -1.193414 4.025852 -2.338109 3.181981 -3.181981 
C 2.338109 -4.025852 1.193414 -4.5 0 -4.5 
C -1.193414 -4.5 -2.338109 -4.025852 -3.181981 -3.181981 
C -4.025852 -2.338109 -4.5 -1.193414 -4.5 0 
C -4.5 1.193414 -4.025852 2.338109 -3.181981 3.181981 
C -2.338109 4.025852 -1.193414 4.5 0 4.5 
z
" style="stroke: #e74c3c"/>
    </defs>
    <g clip-path="url(#pfd44ab2efe)">
     <use xlink:href="#m5919d67e15" x="266.358217" y="79.969038" style="fill: #e74c3c; stroke: #e74c3c"/>
    </g>
   </g>
   <g id="line2d_70">
    <defs>
     <path id="m2c99fdd6c5" d="M 0 5.5 
C 1.458617 5.5 2.857689 4.920485 3.889087 3.889087 
C 4.920485 2.857689 5.5 1.458617 5.5 0 
C 5.5 -1.458617 4.920485 -2.857689 3.889087 -3.889087 
C 2.857689 -4.920485 1.458617 -5.5 0 -5.5 
C -1.458617 -5.5 -2.857689 -4.920485 -3.889087 -3.889087 
C -4.920485 -2.857689 -5.5 -1.458617 -5.5 0 
C -5.5 1.458617 -4.920485 2.857689 -3.889087 3.889087 
C -2.857689 4.920485 -1.458617 5.5 0 5.5 
z
" style="stroke: #e74c3c"/>
    </defs>
    <g clip-path="url(#pfd44ab2efe)">
     <use xlink:href="#m2c99fdd6c5" x="273.39402" y="88.499777" style="fill: #e74c3c; stroke: #e74c3c"/>
    </g>
   </g>
   <g id="line2d_71">
    <defs>
     <path id="m6d068ecd64" d="M 0 7.5 
C 1.989023 7.5 3.896849 6.709753 5.303301 5.303301 
C 6.709753 3.896849 7.5 1.989023 7.5 0 
C 7.5 -1.989023 6.709753 -3.896849 5.303301 -5.303301 
C 3.896849 -6.709753 1.989023 -7.5 0 -7.5 
C -1.989023 -7.5 -3.896849 -6.709753 -5.303301 -5.303301 
C -6.709753 -3.896849 -7.5 -1.989023 -7.5 0 
C -7.5 1.989023 -6.709753 3.896849 -5.303301 5.303301 
C -3.896849 6.709753 -1.989023 7.5 0 7.5 
z
" style="stroke: #e74c3c"/>
    </defs>
    <g clip-path="url(#pfd44ab2efe)">
     <use xlink:href="#m6d068ecd64" x="287.063871" y="97.687502" style="fill: #e74c3c; stroke: #e74c3c"/>
    </g>
   </g>
   <g id="line2d_72">
    <defs>
     <path id="m33233544a1" d="M 0 9.5 
C 2.519429 9.5 4.936009 8.49902 6.717514 6.717514 
C 8.49902 4.936009 9.5 2.519429 9.5 0 
C 9.5 -2.519429 8.49902 -4.936009 6.717514 -6.717514 
C 4.936009 -8.49902 2.519429 -9.5 0 -9.5 
C -2.519429 -9.5 -4.936009 -8.49902 -6.717514 -6.717514 
C -8.49902 -4.936009 -9.5 -2.519429 -9.5 0 
C -9.5 2.519429 -8.49902 4.936009 -6.717514 6.717514 
C -4.936009 8.49902 -2.519429 9.5 0 9.5 
z
" style="stroke: #e74c3c"/>
    </defs>
    <g clip-path="url(#pfd44ab2efe)">
     <use xlink:href="#m33233544a1" x="291.775341" y="106.133827" style="fill: #e74c3c; stroke: #e74c3c"/>
    </g>
   </g>
   <g id="line2d_73">
    <path d="M 254.716182 72.784917 
L 266.358217 79.969038 
L 273.39402 88.499777 
L 287.063871 97.687502 
L 291.775341 106.133827 
" clip-path="url(#pfd44ab2efe)" style="fill: none; stroke: #e74c3c; stroke-opacity: 0.5; stroke-width: 1.2; stroke-linecap: square"/>
   </g>
   <g id="line2d_74">
    <path d="M 40.59625 79.194934 
L 303.73625 79.194934 
" clip-path="url(#pfd44ab2efe)" style="fill: none; stroke-dasharray: 3.7,1.6; stroke-dashoffset: 0; stroke: #808080; stroke-opacity: 0.7"/>
   </g>
   <g id="patch_3">
    <path d="M 40.59625 203.848 
L 40.59625 1.44 
" style="fill: none; stroke: #000000; stroke-width: 0.6; stroke-linejoin: miter; stroke-linecap: square"/>
   </g>
   <g id="patch_4">
    <path d="M 40.59625 203.848 
L 303.73625 203.848 
" style="fill: none; stroke: #000000; stroke-width: 0.6; stroke-linejoin: miter; stroke-linecap: square"/>
   </g>
   <g id="legend_1">
    <g id="patch_5">
     <path d="M 230.535937 58.413438 
L 298.83625 58.413438 
Q 300.23625 58.413438 300.23625 57.013438 
L 300.23625 6.34 
Q 300.23625 4.94 298.83625 4.94 
L 230.535937 4.94 
Q 229.135937 4.94 229.135937 6.34 
L 229.135937 57.013438 
Q 229.135937 58.413438 230.535937 58.413438 
z
" style="fill: #ffffff; opacity: 0.9; stroke: #cccccc; stroke-linejoin: miter"/>
    </g>
    <g id="line2d_75">
     <path d="M 231.935937 10.608906 
L 238.935937 10.608906 
L 245.935937 10.608906 
" style="fill: none; stroke: #3498db; stroke-width: 1.2; stroke-linecap: square"/>
    </g>
    <g id="text_12">
     <!-- EGM -->
     <g transform="translate(251.535937 13.058906) scale(0.07 -0.07)">
      <defs>
       <path id="DejaVuSerif-47" d="M 4097 3272 
Q 3988 3856 3641 4136 
Q 3294 4416 2675 4416 
Q 1869 4416 1472 3897 
Q 1075 3378 1075 2328 
Q 1075 1300 1484 772 
Q 1894 244 2688 244 
Q 3041 244 3362 331 
Q 3684 419 3975 594 
L 3975 1797 
L 3097 1797 
L 3097 2131 
L 4609 2131 
L 4609 391 
Q 4194 150 3714 29 
Q 3234 -91 2688 -91 
Q 1631 -91 995 570 
Q 359 1231 359 2328 
Q 359 3434 996 4092 
Q 1634 4750 2713 4750 
Q 3113 4750 3539 4658 
Q 3966 4566 4447 4378 
L 4447 3272 
L 4097 3272 
z
" transform="scale(0.015625)"/>
      </defs>
      <use xlink:href="#DejaVuSerif-45"/>
      <use xlink:href="#DejaVuSerif-47" transform="translate(72.998047 0)"/>
      <use xlink:href="#DejaVuSerif-4d" transform="translate(152.880859 0)"/>
     </g>
    </g>
    <g id="line2d_76">
     <path d="M 231.935937 20.883594 
L 238.935937 20.883594 
L 245.935937 20.883594 
" style="fill: none; stroke-dasharray: 4.44,1.92; stroke-dashoffset: 0; stroke: #27ae60; stroke-width: 1.2"/>
    </g>
    <g id="text_13">
     <!-- TI fast -->
     <g transform="translate(251.535937 23.333594) scale(0.07 -0.07)">
      <defs>
       <path id="DejaVuSerif-49" d="M 1581 331 
L 2175 331 
L 2175 0 
L 353 0 
L 353 331 
L 947 331 
L 947 4331 
L 353 4331 
L 353 4666 
L 2175 4666 
L 2175 4331 
L 1581 4331 
L 1581 331 
z
" transform="scale(0.015625)"/>
       <path id="DejaVuSerif-66" d="M 2753 4078 
L 2450 4078 
Q 2447 4313 2317 4434 
Q 2188 4556 1941 4556 
Q 1619 4556 1487 4379 
Q 1356 4203 1356 3750 
L 1356 3322 
L 2284 3322 
L 2284 2988 
L 1356 2988 
L 1356 331 
L 2094 331 
L 2094 0 
L 231 0 
L 231 331 
L 781 331 
L 781 2988 
L 231 2988 
L 231 3322 
L 781 3322 
L 781 3738 
Q 781 4294 1070 4578 
Q 1359 4863 1919 4863 
Q 2128 4863 2337 4825 
Q 2547 4788 2753 4709 
L 2753 4078 
z
" transform="scale(0.015625)"/>
       <path id="DejaVuSerif-74" d="M 691 2988 
L 184 2988 
L 184 3322 
L 691 3322 
L 691 4353 
L 1269 4353 
L 1269 3322 
L 2350 3322 
L 2350 2988 
L 1269 2988 
L 1269 878 
Q 1269 456 1350 337 
Q 1431 219 1650 219 
Q 1875 219 1978 351 
Q 2081 484 2088 781 
L 2522 781 
Q 2497 328 2275 118 
Q 2053 -91 1600 -91 
Q 1103 -91 897 129 
Q 691 350 691 878 
L 691 2988 
z
" transform="scale(0.015625)"/>
      </defs>
      <use xlink:href="#DejaVuSerif-54"/>
      <use xlink:href="#DejaVuSerif-49" transform="translate(66.699219 0)"/>
      <use xlink:href="#DejaVuSerif-20" transform="translate(106.201172 0)"/>
      <use xlink:href="#DejaVuSerif-66" transform="translate(137.988281 0)"/>
      <use xlink:href="#DejaVuSerif-61" transform="translate(175 0)"/>
      <use xlink:href="#DejaVuSerif-73" transform="translate(234.619141 0)"/>
      <use xlink:href="#DejaVuSerif-74" transform="translate(285.9375 0)"/>
     </g>
    </g>
    <g id="line2d_77">
     <path d="M 231.935937 31.158281 
L 238.935937 31.158281 
L 245.935937 31.158281 
" style="fill: none; stroke: #27ae60; stroke-opacity: 0.5; stroke-width: 1.2; stroke-linecap: square"/>
    </g>
    <g id="text_14">
     <!-- TI accurate -->
     <g transform="translate(251.535937 33.608281) scale(0.07 -0.07)">
      <defs>
       <path id="DejaVuSerif-63" d="M 3291 997 
Q 3169 466 2822 187 
Q 2475 -91 1925 -91 
Q 1200 -91 759 389 
Q 319 869 319 1663 
Q 319 2459 759 2936 
Q 1200 3413 1925 3413 
Q 2241 3413 2553 3339 
Q 2866 3266 3181 3116 
L 3181 2266 
L 2847 2266 
Q 2781 2703 2561 2903 
Q 2341 3103 1931 3103 
Q 1466 3103 1228 2742 
Q 991 2381 991 1663 
Q 991 944 1227 581 
Q 1463 219 1931 219 
Q 2303 219 2525 412 
Q 2747 606 2828 997 
L 3291 997 
z
" transform="scale(0.015625)"/>
      </defs>
      <use xlink:href="#DejaVuSerif-54"/>
      <use xlink:href="#DejaVuSerif-49" transform="translate(66.699219 0)"/>
      <use xlink:href="#DejaVuSerif-20" transform="translate(106.201172 0)"/>
      <use xlink:href="#DejaVuSerif-61" transform="translate(137.988281 0)"/>
      <use xlink:href="#DejaVuSerif-63" transform="translate(197.607422 0)"/>
      <use xlink:href="#DejaVuSerif-63" transform="translate(253.613281 0)"/>
      <use xlink:href="#DejaVuSerif-75" transform="translate(309.619141 0)"/>
      <use xlink:href="#DejaVuSerif-72" transform="translate(374.023438 0)"/>
      <use xlink:href="#DejaVuSerif-61" transform="translate(421.826172 0)"/>
      <use xlink:href="#DejaVuSerif-74" transform="translate(481.445312 0)"/>
      <use xlink:href="#DejaVuSerif-65" transform="translate(521.630859 0)"/>
     </g>
    </g>
    <g id="line2d_78">
     <path d="M 231.935937 41.432969 
L 238.935937 41.432969 
L 245.935937 41.432969 
" style="fill: none; stroke-dasharray: 4.44,1.92; stroke-dashoffset: 0; stroke: #e74c3c; stroke-width: 1.2"/>
    </g>
    <g id="text_15">
     <!-- VFI fast -->
     <g transform="translate(251.535937 43.882969) scale(0.07 -0.07)">
      <defs>
       <path id="DejaVuSerif-56" d="M 1119 4331 
L 2497 750 
L 3872 4331 
L 3347 4331 
L 3347 4666 
L 4716 4666 
L 4716 4331 
L 4263 4331 
L 2597 0 
L 2059 0 
L 403 4331 
L -63 4331 
L -63 4666 
L 1638 4666 
L 1638 4331 
L 1119 4331 
z
" transform="scale(0.015625)"/>
       <path id="DejaVuSerif-46" d="M 353 0 
L 353 331 
L 947 331 
L 947 4331 
L 353 4331 
L 353 4666 
L 4172 4666 
L 4172 3628 
L 3788 3628 
L 3788 4281 
L 1581 4281 
L 1581 2719 
L 3175 2719 
L 3175 3303 
L 3559 3303 
L 3559 1753 
L 3175 1753 
L 3175 2338 
L 1581 2338 
L 1581 331 
L 2328 331 
L 2328 0 
L 353 0 
z
" transform="scale(0.015625)"/>
      </defs>
      <use xlink:href="#DejaVuSerif-56"/>
      <use xlink:href="#DejaVuSerif-46" transform="translate(72.216797 0)"/>
      <use xlink:href="#DejaVuSerif-49" transform="translate(141.601562 0)"/>
      <use xlink:href="#DejaVuSerif-20" transform="translate(181.103516 0)"/>
      <use xlink:href="#DejaVuSerif-66" transform="translate(212.890625 0)"/>
      <use xlink:href="#DejaVuSerif-61" transform="translate(249.902344 0)"/>
      <use xlink:href="#DejaVuSerif-73" transform="translate(309.521484 0)"/>
      <use xlink:href="#DejaVuSerif-74" transform="translate(360.839844 0)"/>
     </g>
    </g>
    <g id="line2d_79">
     <path d="M 231.935937 51.707656 
L 238.935937 51.707656 
L 245.935937 51.707656 
" style="fill: none; stroke: #e74c3c; stroke-opacity: 0.5; stroke-width: 1.2; stroke-linecap: square"/>
    </g>
    <g id="text_16">
     <!-- VFI accurate -->
     <g transform="translate(251.535937 54.157656) scale(0.07 -0.07)">
      <use xlink:href="#DejaVuSerif-56"/>
      <use xlink:href="#DejaVuSerif-46" transform="translate(72.216797 0)"/>
      <use xlink:href="#DejaVuSerif-49" transform="translate(141.601562 0)"/>
      <use xlink:href="#DejaVuSerif-20" transform="translate(181.103516 0)"/>
      <use xlink:href="#DejaVuSerif-61" transform="translate(212.890625 0)"/>
      <use xlink:href="#DejaVuSerif-63" transform="translate(272.509766 0)"/>
      <use xlink:href="#DejaVuSerif-63" transform="translate(328.515625 0)"/>
      <use xlink:href="#DejaVuSerif-75" transform="translate(384.521484 0)"/>
      <use xlink:href="#DejaVuSerif-72" transform="translate(448.925781 0)"/>
      <use xlink:href="#DejaVuSerif-61" transform="translate(496.728516 0)"/>
      <use xlink:href="#DejaVuSerif-74" transform="translate(556.347656 0)"/>
      <use xlink:href="#DejaVuSerif-65" transform="translate(596.533203 0)"/>
     </g>
    </g>
   </g>
  </g>
 </g>
 <defs>
  <clipPath id="pfd44ab2efe">
   <rect x="40.59625" y="1.44" width="263.14" height="202.408"/>
  </clipPath>
 </defs>
</svg>
