<?xml version="1.0" encoding="utf-8" standalone="no"?>
<!DOCTYPE svg PUBLIC "-//W3C//DTD SVG 1.1//EN"
  "http://www.w3.org/Graphics/SVG/1.1/DTD/svg11.dtd">
<svg xmlns:xlink="http://www.w3.org/1999/xlink" width="268.8475pt" height="199.092812pt" viewBox="0 0 268.8475 199.092812" xmlns="http://www.w3.org/2000/svg" version="1.1">
 <metadata>
  <rdf:RDF xmlns:dc="http://purl.org/dc/elements/1.1/" xmlns:cc="http://creativecommons.org/ns#" xmlns:rdf="http://www.w3.org/1999/02/22-rdf-syntax-ns#">
   <cc:Work>
    <dc:type rdf:resource="http://purl.org/dc/dcmitype/StillImage"/>
    <dc:date>2026-01-06T14:56:28.706960</dc:date>
    <dc:format>image/svg+xml</dc:format>
    <dc:creator>
     <cc:Agent>
      <dc:title>Matplotlib v3.10.8, https://matplotlib.org/</dc:title>
     </cc:Agent>
    </dc:creator>
   </cc:Work>
  </rdf:RDF>
 </metadata>
 <defs>
  <style type="text/css">*{stroke-linejoin: round; stroke-linecap: butt}</style>
 </defs>
 <g id="figure_1">
  <g id="patch_1">
   <path d="M 0 199.092812 
L 268.8475 199.092812 
L 268.8475 0 
L 0 0 
z
" style="fill: #ffffff"/>
  </g>
  <g id="axes_1">
   <g id="patch_2">
    <path d="M 34.1625 170.2 
L 267.4075 170.2 
L 267.4075 1.44 
L 34.1625 1.44 
z
" style="fill: #ffffff"/>
   </g>
   <g id="matplotlib.axis_1">
    <g id="xtick_1">
     <g id="line2d_1">
      <defs>
       <path id="m9f4b105126" d="M 0 0 
L 0 3.5 
" style="stroke: #000000; stroke-width: 0.8"/>
      </defs>
      <g>
       <use xlink:href="#m9f4b105126" x="34.1625" y="170.2" style="stroke: #000000; stroke-width: 0.8"/>
      </g>
     </g>
     <g id="text_1">
      <!-- 0 -->
      <g transform="translate(31.6175 183.27875) scale(0.08 -0.08)">
       <defs>
        <path id="DejaVuSerif-30" d="M 2034 219 
Q 2513 219 2750 744 
Q 2988 1269 2988 2328 
Q 2988 3391 2750 3916 
Q 2513 4441 2034 4441 
Q 1556 4441 1318 3916 
Q 1081 3391 1081 2328 
Q 1081 1269 1318 744 
Q 1556 219 2034 219 
z
M 2034 -91 
Q 1275 -91 848 546 
Q 422 1184 422 2328 
Q 422 3475 848 4112 
Q 1275 4750 2034 4750 
Q 2797 4750 3222 4112 
Q 3647 3475 3647 2328 
Q 3647 1184 3222 546 
Q 2797 -91 2034 -91 
z
" transform="scale(0.015625)"/>
       </defs>
       <use xlink:href="#DejaVuSerif-30"/>
      </g>
     </g>
    </g>
    <g id="xtick_2">
     <g id="line2d_2">
      <g>
       <use xlink:href="#m9f4b105126" x="84.837738" y="170.2" style="stroke: #000000; stroke-width: 0.8"/>
      </g>
     </g>
     <g id="text_2">
      <!-- 5 -->
      <g transform="translate(82.292738 183.27875) scale(0.08 -0.08)">
       <defs>
        <path id="DejaVuSerif-35" d="M 3219 4666 
L 3219 4153 
L 1081 4153 
L 1081 2816 
Q 1244 2928 1461 2984 
Q 1678 3041 1947 3041 
Q 2703 3041 3140 2622 
Q 3578 2203 3578 1478 
Q 3578 738 3136 323 
Q 2694 -91 1894 -91 
Q 1572 -91 1234 -12 
Q 897 66 544 225 
L 544 1131 
L 897 1131 
Q 925 688 1179 453 
Q 1434 219 1894 219 
Q 2388 219 2653 544 
Q 2919 869 2919 1478 
Q 2919 2084 2655 2407 
Q 2391 2731 1894 2731 
Q 1613 2731 1398 2631 
Q 1184 2531 1019 2322 
L 750 2322 
L 750 4666 
L 3219 4666 
z
" transform="scale(0.015625)"/>
       </defs>
       <use xlink:href="#DejaVuSerif-35"/>
      </g>
     </g>
    </g>
    <g id="xtick_3">
     <g id="line2d_3">
      <g>
       <use xlink:href="#m9f4b105126" x="135.512976" y="170.2" style="stroke: #000000; stroke-width: 0.8"/>
      </g>
     </g>
     <g id="text_3">
      <!-- 10 -->
      <g transform="translate(130.422976 183.27875) scale(0.08 -0.08)">
       <defs>
        <path id="DejaVuSerif-31" d="M 909 0 
L 909 331 
L 1722 331 
L 1722 4213 
L 781 3603 
L 781 4013 
L 1919 4750 
L 2350 4750 
L 2350 331 
L 3163 331 
L 3163 0 
L 909 0 
z
" transform="scale(0.015625)"/>
       </defs>
       <use xlink:href="#DejaVuSerif-31"/>
       <use xlink:href="#DejaVuSerif-30" transform="translate(63.623047 0)"/>
      </g>
     </g>
    </g>
    <g id="xtick_4">
     <g id="line2d_4">
      <g>
       <use xlink:href="#m9f4b105126" x="186.188214" y="170.2" style="stroke: #000000; stroke-width: 0.8"/>
      </g>
     </g>
     <g id="text_4">
      <!-- 15 -->
      <g transform="translate(181.098214 183.27875) scale(0.08 -0.08)">
       <use xlink:href="#DejaVuSerif-31"/>
       <use xlink:href="#DejaVuSerif-35" transform="translate(63.623047 0)"/>
      </g>
     </g>
    </g>
    <g id="xtick_5">
     <g id="line2d_5">
      <g>
       <use xlink:href="#m9f4b105126" x="236.863452" y="170.2" style="stroke: #000000; stroke-width: 0.8"/>
      </g>
     </g>
     <g id="text_5">
      <!-- 20 -->
      <g transform="translate(231.773452 183.27875) scale(0.08 -0.08)">
       <defs>
        <path id="DejaVuSerif-32" d="M 819 3553 
L 469 3553 
L 469 4384 
Q 803 4563 1142 4656 
Q 1481 4750 1806 4750 
Q 2534 4750 2956 4397 
Q 3378 4044 3378 3438 
Q 3378 2753 2422 1800 
Q 2347 1728 2309 1691 
L 1131 513 
L 3078 513 
L 3078 1088 
L 3444 1088 
L 3444 0 
L 434 0 
L 434 341 
L 1850 1753 
Q 2319 2222 2519 2614 
Q 2719 3006 2719 3438 
Q 2719 3909 2473 4175 
Q 2228 4441 1797 4441 
Q 1350 4441 1106 4219 
Q 863 3997 819 3553 
z
" transform="scale(0.015625)"/>
       </defs>
       <use xlink:href="#DejaVuSerif-32"/>
       <use xlink:href="#DejaVuSerif-30" transform="translate(63.623047 0)"/>
      </g>
     </g>
    </g>
    <g id="text_6">
     <!-- Cash-on-hand $m$ -->
     <g transform="translate(114.02 195.781094) scale(0.09 -0.09)">
      <defs>
       <path id="DejaVuSerif-43" d="M 4513 1234 
Q 4306 581 3820 245 
Q 3334 -91 2591 -91 
Q 2134 -91 1743 65 
Q 1353 222 1050 525 
Q 700 875 529 1320 
Q 359 1766 359 2328 
Q 359 3416 987 4083 
Q 1616 4750 2644 4750 
Q 3025 4750 3456 4650 
Q 3888 4550 4384 4347 
L 4384 3272 
L 4031 3272 
Q 3916 3859 3567 4137 
Q 3219 4416 2591 4416 
Q 1844 4416 1459 3886 
Q 1075 3356 1075 2328 
Q 1075 1303 1459 773 
Q 1844 244 2591 244 
Q 3113 244 3450 492 
Q 3788 741 3938 1234 
L 4513 1234 
z
" transform="scale(0.015625)"/>
       <path id="DejaVuSerif-61" d="M 2547 1044 
L 2547 1747 
L 1806 1747 
Q 1378 1747 1168 1562 
Q 959 1378 959 997 
Q 959 650 1171 447 
Q 1384 244 1747 244 
Q 2106 244 2326 466 
Q 2547 688 2547 1044 
z
M 3122 2075 
L 3122 331 
L 3634 331 
L 3634 0 
L 2547 0 
L 2547 359 
Q 2356 128 2106 18 
Q 1856 -91 1522 -91 
Q 969 -91 644 203 
Q 319 497 319 997 
Q 319 1513 691 1797 
Q 1063 2081 1741 2081 
L 2547 2081 
L 2547 2309 
Q 2547 2688 2317 2895 
Q 2088 3103 1672 3103 
Q 1328 3103 1125 2947 
Q 922 2791 872 2484 
L 575 2484 
L 575 3156 
Q 875 3284 1158 3348 
Q 1441 3413 1709 3413 
Q 2400 3413 2761 3070 
Q 3122 2728 3122 2075 
z
" transform="scale(0.015625)"/>
       <path id="DejaVuSerif-73" d="M 359 184 
L 359 959 
L 691 959 
Q 703 588 923 403 
Q 1144 219 1575 219 
Q 1963 219 2166 364 
Q 2369 509 2369 788 
Q 2369 1006 2220 1140 
Q 2072 1275 1594 1428 
L 1178 1569 
Q 750 1706 558 1912 
Q 366 2119 366 2438 
Q 366 2894 700 3153 
Q 1034 3413 1625 3413 
Q 1888 3413 2178 3344 
Q 2469 3275 2778 3144 
L 2778 2419 
L 2447 2419 
Q 2434 2741 2221 2922 
Q 2009 3103 1644 3103 
Q 1281 3103 1095 2975 
Q 909 2847 909 2591 
Q 909 2381 1050 2254 
Q 1191 2128 1613 1997 
L 2069 1856 
Q 2541 1709 2748 1489 
Q 2956 1269 2956 922 
Q 2956 450 2595 179 
Q 2234 -91 1600 -91 
Q 1278 -91 972 -22 
Q 666 47 359 184 
z
" transform="scale(0.015625)"/>
       <path id="DejaVuSerif-68" d="M 263 0 
L 263 331 
L 781 331 
L 781 4531 
L 231 4531 
L 231 4863 
L 1356 4863 
L 1356 2731 
Q 1516 3069 1770 3241 
Q 2025 3413 2363 3413 
Q 2913 3413 3172 3097 
Q 3431 2781 3431 2113 
L 3431 331 
L 3944 331 
L 3944 0 
L 2356 0 
L 2356 331 
L 2853 331 
L 2853 1931 
Q 2853 2541 2704 2764 
Q 2556 2988 2175 2988 
Q 1775 2988 1565 2697 
Q 1356 2406 1356 1850 
L 1356 331 
L 1856 331 
L 1856 0 
L 263 0 
z
" transform="scale(0.015625)"/>
       <path id="DejaVuSerif-2d" d="M 281 1959 
L 1881 1959 
L 1881 1472 
L 281 1472 
L 281 1959 
z
" transform="scale(0.015625)"/>
       <path id="DejaVuSerif-6f" d="M 1925 219 
Q 2388 219 2623 584 
Q 2859 950 2859 1663 
Q 2859 2375 2623 2739 
Q 2388 3103 1925 3103 
Q 1463 3103 1227 2739 
Q 991 2375 991 1663 
Q 991 950 1228 584 
Q 1466 219 1925 219 
z
M 1925 -91 
Q 1200 -91 759 389 
Q 319 869 319 1663 
Q 319 2456 758 2934 
Q 1197 3413 1925 3413 
Q 2653 3413 3092 2934 
Q 3531 2456 3531 1663 
Q 3531 869 3092 389 
Q 2653 -91 1925 -91 
z
" transform="scale(0.015625)"/>
       <path id="DejaVuSerif-6e" d="M 263 0 
L 263 331 
L 781 331 
L 781 2988 
L 231 2988 
L 231 3322 
L 1356 3322 
L 1356 2731 
Q 1516 3069 1770 3241 
Q 2025 3413 2363 3413 
Q 2913 3413 3172 3097 
Q 3431 2781 3431 2113 
L 3431 331 
L 3944 331 
L 3944 0 
L 2356 0 
L 2356 331 
L 2853 331 
L 2853 1931 
Q 2853 2541 2703 2767 
Q 2553 2994 2175 2994 
Q 1775 2994 1565 2701 
Q 1356 2409 1356 1850 
L 1356 331 
L 1856 331 
L 1856 0 
L 263 0 
z
" transform="scale(0.015625)"/>
       <path id="DejaVuSerif-64" d="M 3359 331 
L 3909 331 
L 3909 0 
L 2784 0 
L 2784 519 
Q 2616 206 2355 57 
Q 2094 -91 1709 -91 
Q 1097 -91 708 395 
Q 319 881 319 1663 
Q 319 2444 706 2928 
Q 1094 3413 1709 3413 
Q 2094 3413 2355 3264 
Q 2616 3116 2784 2803 
L 2784 4531 
L 2241 4531 
L 2241 4863 
L 3359 4863 
L 3359 331 
z
M 2784 1497 
L 2784 1825 
Q 2784 2422 2554 2737 
Q 2325 3053 1888 3053 
Q 1444 3053 1217 2703 
Q 991 2353 991 1663 
Q 991 975 1217 622 
Q 1444 269 1888 269 
Q 2325 269 2554 583 
Q 2784 897 2784 1497 
z
" transform="scale(0.015625)"/>
       <path id="DejaVuSerif-20" transform="scale(0.015625)"/>
       <path id="Cmmi10-6d" d="M 494 109 
Q 494 147 500 166 
L 978 2075 
Q 1025 2253 1025 2388 
Q 1025 2663 838 2663 
Q 638 2663 541 2423 
Q 444 2184 353 1819 
Q 353 1800 334 1789 
Q 316 1778 300 1778 
L 225 1778 
Q 203 1778 187 1801 
Q 172 1825 172 1844 
Q 241 2122 305 2315 
Q 369 2509 505 2668 
Q 641 2828 844 2828 
Q 1084 2828 1268 2676 
Q 1453 2525 1453 2291 
Q 1644 2541 1900 2684 
Q 2156 2828 2444 2828 
Q 2747 2828 2967 2673 
Q 3188 2519 3188 2234 
Q 3384 2513 3648 2670 
Q 3913 2828 4225 2828 
Q 4556 2828 4757 2648 
Q 4959 2469 4959 2138 
Q 4959 1875 4842 1503 
Q 4725 1131 4550 672 
Q 4459 450 4459 288 
Q 4459 97 4609 97 
Q 4859 97 5025 365 
Q 5191 634 5259 941 
Q 5278 978 5313 978 
L 5388 978 
Q 5413 978 5430 961 
Q 5447 944 5447 922 
Q 5447 916 5441 903 
Q 5353 541 5136 234 
Q 4919 -72 4594 -72 
Q 4369 -72 4209 83 
Q 4050 238 4050 459 
Q 4050 572 4103 709 
Q 4284 1191 4404 1569 
Q 4525 1947 4525 2234 
Q 4525 2413 4453 2538 
Q 4381 2663 4213 2663 
Q 3863 2663 3606 2448 
Q 3350 2234 3163 1881 
Q 3150 1819 3144 1784 
L 2731 141 
Q 2709 53 2632 -9 
Q 2556 -72 2463 -72 
Q 2388 -72 2330 -22 
Q 2272 28 2272 109 
Q 2272 147 2278 166 
L 2688 1797 
Q 2753 2059 2753 2234 
Q 2753 2413 2679 2538 
Q 2606 2663 2431 2663 
Q 2197 2663 2000 2559 
Q 1803 2456 1656 2286 
Q 1509 2116 1388 1881 
L 953 141 
Q 931 53 854 -9 
Q 778 -72 684 -72 
Q 606 -72 550 -22 
Q 494 28 494 109 
z
" transform="scale(0.015625)"/>
      </defs>
      <use xlink:href="#DejaVuSerif-43" transform="translate(0 0.015625)"/>
      <use xlink:href="#DejaVuSerif-61" transform="translate(76.513672 0.015625)"/>
      <use xlink:href="#DejaVuSerif-73" transform="translate(136.132812 0.015625)"/>
      <use xlink:href="#DejaVuSerif-68" transform="translate(187.451172 0.015625)"/>
      <use xlink:href="#DejaVuSerif-2d" transform="translate(251.855469 0.015625)"/>
      <use xlink:href="#DejaVuSerif-6f" transform="translate(285.644531 0.015625)"/>
      <use xlink:href="#DejaVuSerif-6e" transform="translate(345.849609 0.015625)"/>
      <use xlink:href="#DejaVuSerif-2d" transform="translate(410.253906 0.015625)"/>
      <use xlink:href="#DejaVuSerif-68" transform="translate(444.042969 0.015625)"/>
      <use xlink:href="#DejaVuSerif-61" transform="translate(508.447266 0.015625)"/>
      <use xlink:href="#DejaVuSerif-6e" transform="translate(568.066406 0.015625)"/>
      <use xlink:href="#DejaVuSerif-64" transform="translate(632.470703 0.015625)"/>
      <use xlink:href="#DejaVuSerif-20" transform="translate(696.484375 0.015625)"/>
      <use xlink:href="#Cmmi10-6d" transform="translate(728.271484 0.015625)"/>
     </g>
    </g>
   </g>
   <g id="matplotlib.axis_2">
    <g id="ytick_1">
     <g id="line2d_6">
      <defs>
       <path id="m2ca9c01bda" d="M 0 0 
L -3.5 0 
" style="stroke: #000000; stroke-width: 0.8"/>
      </defs>
      <g>
       <use xlink:href="#m2ca9c01bda" x="34.1625" y="170.2" style="stroke: #000000; stroke-width: 0.8"/>
      </g>
     </g>
     <g id="text_7">
      <!-- 0.0 -->
      <g transform="translate(14.44 173.239375) scale(0.08 -0.08)">
       <defs>
        <path id="DejaVuSerif-2e" d="M 603 325 
Q 603 500 722 622 
Q 841 744 1019 744 
Q 1191 744 1312 622 
Q 1434 500 1434 325 
Q 1434 153 1312 31 
Q 1191 -91 1019 -91 
Q 841 -91 722 29 
Q 603 150 603 325 
z
" transform="scale(0.015625)"/>
       </defs>
       <use xlink:href="#DejaVuSerif-30"/>
       <use xlink:href="#DejaVuSerif-2e" transform="translate(63.623047 0)"/>
       <use xlink:href="#DejaVuSerif-30" transform="translate(95.410156 0)"/>
      </g>
     </g>
    </g>
    <g id="ytick_2">
     <g id="line2d_7">
      <g>
       <use xlink:href="#m2ca9c01bda" x="34.1625" y="143.116901" style="stroke: #000000; stroke-width: 0.8"/>
      </g>
     </g>
     <g id="text_8">
      <!-- 0.5 -->
      <g transform="translate(14.44 146.156276) scale(0.08 -0.08)">
       <use xlink:href="#DejaVuSerif-30"/>
       <use xlink:href="#DejaVuSerif-2e" transform="translate(63.623047 0)"/>
       <use xlink:href="#DejaVuSerif-35" transform="translate(95.410156 0)"/>
      </g>
     </g>
    </g>
    <g id="ytick_3">
     <g id="line2d_8">
      <g>
       <use xlink:href="#m2ca9c01bda" x="34.1625" y="116.033802" style="stroke: #000000; stroke-width: 0.8"/>
      </g>
     </g>
     <g id="text_9">
      <!-- 1.0 -->
      <g transform="translate(14.44 119.073177) scale(0.08 -0.08)">
       <use xlink:href="#DejaVuSerif-31"/>
       <use xlink:href="#DejaVuSerif-2e" transform="translate(63.623047 0)"/>
       <use xlink:href="#DejaVuSerif-30" transform="translate(95.410156 0)"/>
      </g>
     </g>
    </g>
    <g id="ytick_4">
     <g id="line2d_9">
      <g>
       <use xlink:href="#m2ca9c01bda" x="34.1625" y="88.950703" style="stroke: #000000; stroke-width: 0.8"/>
      </g>
     </g>
     <g id="text_10">
      <!-- 1.5 -->
      <g transform="translate(14.44 91.990078) scale(0.08 -0.08)">
       <use xlink:href="#DejaVuSerif-31"/>
       <use xlink:href="#DejaVuSerif-2e" transform="translate(63.623047 0)"/>
       <use xlink:href="#DejaVuSerif-35" transform="translate(95.410156 0)"/>
      </g>
     </g>
    </g>
    <g id="ytick_5">
     <g id="line2d_10">
      <g>
       <use xlink:href="#m2ca9c01bda" x="34.1625" y="61.867604" style="stroke: #000000; stroke-width: 0.8"/>
      </g>
     </g>
     <g id="text_11">
      <!-- 2.0 -->
      <g transform="translate(14.44 64.906979) scale(0.08 -0.08)">
       <use xlink:href="#DejaVuSerif-32"/>
       <use xlink:href="#DejaVuSerif-2e" transform="translate(63.623047 0)"/>
       <use xlink:href="#DejaVuSerif-30" transform="translate(95.410156 0)"/>
      </g>
     </g>
    </g>
    <g id="ytick_6">
     <g id="line2d_11">
      <g>
       <use xlink:href="#m2ca9c01bda" x="34.1625" y="34.784505" style="stroke: #000000; stroke-width: 0.8"/>
      </g>
     </g>
     <g id="text_12">
      <!-- 2.5 -->
      <g transform="translate(14.44 37.82388) scale(0.08 -0.08)">
       <use xlink:href="#DejaVuSerif-32"/>
       <use xlink:href="#DejaVuSerif-2e" transform="translate(63.623047 0)"/>
       <use xlink:href="#DejaVuSerif-35" transform="translate(95.410156 0)"/>
      </g>
     </g>
    </g>
    <g id="ytick_7">
     <g id="line2d_12">
      <g>
       <use xlink:href="#m2ca9c01bda" x="34.1625" y="7.701406" style="stroke: #000000; stroke-width: 0.8"/>
      </g>
     </g>
     <g id="text_13">
      <!-- 3.0 -->
      <g transform="translate(14.44 10.740781) scale(0.08 -0.08)">
       <defs>
        <path id="DejaVuSerif-33" d="M 622 4469 
Q 988 4606 1323 4678 
Q 1659 4750 1953 4750 
Q 2638 4750 3022 4454 
Q 3406 4159 3406 3634 
Q 3406 3213 3140 2930 
Q 2875 2647 2388 2547 
Q 2963 2466 3280 2130 
Q 3597 1794 3597 1259 
Q 3597 606 3158 257 
Q 2719 -91 1894 -91 
Q 1528 -91 1179 -12 
Q 831 66 488 225 
L 488 1131 
L 838 1131 
Q 869 681 1141 450 
Q 1413 219 1906 219 
Q 2384 219 2661 495 
Q 2938 772 2938 1253 
Q 2938 1803 2653 2086 
Q 2369 2369 1819 2369 
L 1522 2369 
L 1522 2688 
L 1678 2688 
Q 2225 2688 2498 2914 
Q 2772 3141 2772 3597 
Q 2772 4006 2547 4223 
Q 2322 4441 1900 4441 
Q 1478 4441 1245 4241 
Q 1013 4041 972 3647 
L 622 3647 
L 622 4469 
z
" transform="scale(0.015625)"/>
       </defs>
       <use xlink:href="#DejaVuSerif-33"/>
       <use xlink:href="#DejaVuSerif-2e" transform="translate(63.623047 0)"/>
       <use xlink:href="#DejaVuSerif-30" transform="translate(95.410156 0)"/>
      </g>
     </g>
    </g>
    <g id="text_14">
     <!-- Consumption $c(m,z)$ -->
     <g transform="translate(8.19 131.045) rotate(-90) scale(0.09 -0.09)">
      <defs>
       <path id="DejaVuSerif-75" d="M 2266 3322 
L 3341 3322 
L 3341 331 
L 3884 331 
L 3884 0 
L 2766 0 
L 2766 588 
Q 2606 256 2353 82 
Q 2100 -91 1766 -91 
Q 1213 -91 952 223 
Q 691 538 691 1209 
L 691 2988 
L 172 2988 
L 172 3322 
L 1269 3322 
L 1269 1388 
Q 1269 781 1417 556 
Q 1566 331 1947 331 
Q 2347 331 2556 625 
Q 2766 919 2766 1478 
L 2766 2988 
L 2266 2988 
L 2266 3322 
z
" transform="scale(0.015625)"/>
       <path id="DejaVuSerif-6d" d="M 3316 2675 
Q 3481 3041 3739 3227 
Q 3997 3413 4341 3413 
Q 4863 3413 5119 3089 
Q 5375 2766 5375 2113 
L 5375 331 
L 5894 331 
L 5894 0 
L 4300 0 
L 4300 331 
L 4800 331 
L 4800 2047 
Q 4800 2556 4650 2772 
Q 4500 2988 4153 2988 
Q 3769 2988 3567 2697 
Q 3366 2406 3366 1850 
L 3366 331 
L 3866 331 
L 3866 0 
L 2291 0 
L 2291 331 
L 2791 331 
L 2791 2069 
Q 2791 2566 2641 2777 
Q 2491 2988 2144 2988 
Q 1759 2988 1557 2697 
Q 1356 2406 1356 1850 
L 1356 331 
L 1856 331 
L 1856 0 
L 263 0 
L 263 331 
L 781 331 
L 781 2994 
L 231 2994 
L 231 3322 
L 1356 3322 
L 1356 2731 
Q 1516 3063 1762 3238 
Q 2009 3413 2322 3413 
Q 2709 3413 2968 3220 
Q 3228 3028 3316 2675 
z
" transform="scale(0.015625)"/>
       <path id="DejaVuSerif-70" d="M 1313 1825 
L 1313 1497 
Q 1313 897 1542 583 
Q 1772 269 2209 269 
Q 2650 269 2876 622 
Q 3103 975 3103 1663 
Q 3103 2353 2876 2703 
Q 2650 3053 2209 3053 
Q 1772 3053 1542 2737 
Q 1313 2422 1313 1825 
z
M 738 2988 
L 184 2988 
L 184 3322 
L 1313 3322 
L 1313 2803 
Q 1481 3116 1742 3264 
Q 2003 3413 2388 3413 
Q 3000 3413 3387 2928 
Q 3775 2444 3775 1663 
Q 3775 881 3387 395 
Q 3000 -91 2388 -91 
Q 2003 -91 1742 57 
Q 1481 206 1313 519 
L 1313 -997 
L 1856 -997 
L 1856 -1331 
L 184 -1331 
L 184 -997 
L 738 -997 
L 738 2988 
z
" transform="scale(0.015625)"/>
       <path id="DejaVuSerif-74" d="M 691 2988 
L 184 2988 
L 184 3322 
L 691 3322 
L 691 4353 
L 1269 4353 
L 1269 3322 
L 2350 3322 
L 2350 2988 
L 1269 2988 
L 1269 878 
Q 1269 456 1350 337 
Q 1431 219 1650 219 
Q 1875 219 1978 351 
Q 2081 484 2088 781 
L 2522 781 
Q 2497 328 2275 118 
Q 2053 -91 1600 -91 
Q 1103 -91 897 129 
Q 691 350 691 878 
L 691 2988 
z
" transform="scale(0.015625)"/>
       <path id="DejaVuSerif-69" d="M 622 4353 
Q 622 4497 726 4603 
Q 831 4709 978 4709 
Q 1122 4709 1226 4603 
Q 1331 4497 1331 4353 
Q 1331 4206 1228 4103 
Q 1125 4000 978 4000 
Q 831 4000 726 4103 
Q 622 4206 622 4353 
z
M 1356 331 
L 1900 331 
L 1900 0 
L 231 0 
L 231 331 
L 781 331 
L 781 2988 
L 231 2988 
L 231 3322 
L 1356 3322 
L 1356 331 
z
" transform="scale(0.015625)"/>
       <path id="Cmmi10-63" d="M 750 763 
Q 750 484 892 290 
Q 1034 97 1300 97 
Q 1681 97 2032 272 
Q 2384 447 2606 756 
Q 2625 775 2656 775 
Q 2688 775 2720 739 
Q 2753 703 2753 672 
Q 2753 647 2741 634 
Q 2506 306 2109 117 
Q 1713 -72 1288 -72 
Q 981 -72 747 73 
Q 513 219 384 462 
Q 256 706 256 1013 
Q 256 1444 497 1869 
Q 738 2294 1138 2561 
Q 1538 2828 1978 2828 
Q 2266 2828 2495 2689 
Q 2725 2550 2725 2278 
Q 2725 2103 2623 1979 
Q 2522 1856 2350 1856 
Q 2247 1856 2176 1920 
Q 2106 1984 2106 2088 
Q 2106 2238 2215 2344 
Q 2325 2450 2472 2450 
L 2484 2450 
Q 2409 2559 2267 2611 
Q 2125 2663 1972 2663 
Q 1597 2663 1315 2342 
Q 1034 2022 892 1576 
Q 750 1131 750 763 
z
" transform="scale(0.015625)"/>
       <path id="Cmr10-28" d="M 1984 -1588 
Q 1628 -1306 1370 -942 
Q 1113 -578 948 -165 
Q 784 247 703 697 
Q 622 1147 622 1600 
Q 622 2059 703 2509 
Q 784 2959 951 3375 
Q 1119 3791 1378 4153 
Q 1638 4516 1984 4788 
Q 1984 4800 2016 4800 
L 2075 4800 
Q 2094 4800 2109 4783 
Q 2125 4766 2125 4744 
Q 2125 4716 2113 4703 
Q 1800 4397 1592 4047 
Q 1384 3697 1257 3301 
Q 1131 2906 1075 2482 
Q 1019 2059 1019 1600 
Q 1019 -434 2106 -1491 
Q 2125 -1509 2125 -1544 
Q 2125 -1559 2108 -1579 
Q 2091 -1600 2075 -1600 
L 2016 -1600 
Q 1984 -1600 1984 -1588 
z
" transform="scale(0.015625)"/>
       <path id="Cmmi10-3b" d="M 634 -1153 
Q 634 -1125 659 -1100 
Q 891 -878 1019 -587 
Q 1147 -297 1147 25 
L 1147 103 
Q 1044 0 891 0 
Q 744 0 641 103 
Q 538 206 538 353 
Q 538 503 641 603 
Q 744 703 891 703 
Q 1119 703 1216 492 
Q 1313 281 1313 25 
Q 1313 -331 1170 -651 
Q 1028 -972 769 -1228 
Q 744 -1241 728 -1241 
Q 697 -1241 665 -1212 
Q 634 -1184 634 -1153 
z
" transform="scale(0.015625)"/>
       <path id="Cmmi10-7a" d="M 313 -72 
Q 263 -72 263 -13 
Q 263 19 275 31 
Q 447 328 689 598 
Q 931 869 1239 1145 
Q 1547 1422 1858 1700 
Q 2169 1978 2363 2194 
L 2338 2194 
Q 2197 2194 1925 2284 
Q 1653 2375 1497 2375 
Q 1328 2375 1168 2301 
Q 1009 2228 966 2075 
Q 956 2028 916 2028 
L 838 2028 
Q 788 2028 788 2094 
L 788 2113 
Q 838 2300 952 2462 
Q 1066 2625 1233 2726 
Q 1400 2828 1581 2828 
Q 1709 2828 1793 2770 
Q 1878 2713 1990 2591 
Q 2103 2469 2173 2416 
Q 2244 2363 2350 2363 
Q 2491 2363 2602 2491 
Q 2713 2619 2822 2809 
Q 2841 2828 2869 2828 
L 2944 2828 
Q 2966 2828 2980 2812 
Q 2994 2797 2994 2772 
Q 2994 2750 2981 2731 
Q 2809 2434 2579 2176 
Q 2350 1919 1979 1586 
Q 1609 1253 1354 1023 
Q 1100 794 878 550 
Q 928 563 1013 563 
Q 1169 563 1439 473 
Q 1709 384 1856 384 
Q 2016 384 2178 453 
Q 2341 522 2459 647 
Q 2578 772 2619 934 
Q 2634 978 2669 978 
L 2747 978 
Q 2772 978 2787 958 
Q 2803 938 2803 916 
Q 2803 909 2797 897 
Q 2738 653 2591 433 
Q 2444 213 2230 70 
Q 2016 -72 1772 -72 
Q 1650 -72 1565 -15 
Q 1481 41 1367 164 
Q 1253 288 1181 342 
Q 1109 397 1006 397 
Q 688 397 434 -50 
Q 413 -72 391 -72 
L 313 -72 
z
" transform="scale(0.015625)"/>
       <path id="Cmr10-29" d="M 416 -1600 
Q 359 -1600 359 -1544 
Q 359 -1516 372 -1503 
Q 1466 -434 1466 1600 
Q 1466 3634 384 4691 
Q 359 4706 359 4744 
Q 359 4766 376 4783 
Q 394 4800 416 4800 
L 475 4800 
Q 494 4800 506 4788 
Q 966 4425 1272 3906 
Q 1578 3388 1720 2800 
Q 1863 2213 1863 1600 
Q 1863 1147 1786 708 
Q 1709 269 1542 -157 
Q 1375 -584 1119 -945 
Q 863 -1306 506 -1588 
Q 494 -1600 475 -1600 
L 416 -1600 
z
" transform="scale(0.015625)"/>
      </defs>
      <use xlink:href="#DejaVuSerif-43"/>
      <use xlink:href="#DejaVuSerif-6f" transform="translate(76.513672 0)"/>
      <use xlink:href="#DejaVuSerif-6e" transform="translate(136.71875 0)"/>
      <use xlink:href="#DejaVuSerif-73" transform="translate(201.123047 0)"/>
      <use xlink:href="#DejaVuSerif-75" transform="translate(252.441406 0)"/>
      <use xlink:href="#DejaVuSerif-6d" transform="translate(316.845703 0)"/>
      <use xlink:href="#DejaVuSerif-70" transform="translate(411.669922 0)"/>
      <use xlink:href="#DejaVuSerif-74" transform="translate(475.683594 0)"/>
      <use xlink:href="#DejaVuSerif-69" transform="translate(515.869141 0)"/>
      <use xlink:href="#DejaVuSerif-6f" transform="translate(547.851562 0)"/>
      <use xlink:href="#DejaVuSerif-6e" transform="translate(608.056641 0)"/>
      <use xlink:href="#DejaVuSerif-20" transform="translate(672.460938 0)"/>
      <use xlink:href="#Cmmi10-63" transform="translate(704.248047 0)"/>
      <use xlink:href="#Cmr10-28" transform="translate(747.460938 0)"/>
      <use xlink:href="#Cmmi10-6d" transform="translate(786.279297 0)"/>
      <use xlink:href="#Cmmi10-3b" transform="translate(874.072266 0)"/>
      <use xlink:href="#Cmmi10-7a" transform="translate(919.316406 0)"/>
      <use xlink:href="#Cmr10-29" transform="translate(965.800781 0)"/>
     </g>
    </g>
   </g>
   <g id="line2d_13">
    <path d="M 34.1625 170.2 
L 34.49319 168.432648 
L 34.834669 166.60763 
L 35.18729 164.723065 
L 35.551417 162.77701 
L 35.927425 160.767458 
L 36.315701 158.692338 
L 36.716646 156.54951 
L 37.130673 154.336765 
L 37.558209 152.051822 
L 37.999695 149.692325 
L 38.455586 147.720615 
L 38.926351 146.605394 
L 39.412478 145.699272 
L 39.914465 144.915225 
L 40.432832 144.19949 
L 40.968112 143.545296 
L 41.520857 142.922436 
L 42.091637 142.324861 
L 42.681041 141.746829 
L 43.289677 141.184773 
L 43.918171 140.633712 
L 44.567171 140.089877 
L 45.237348 139.553907 
L 45.929391 139.022075 
L 46.644015 138.494007 
L 47.381955 137.966841 
L 48.143974 137.439206 
L 48.930855 136.910906 
L 49.743411 136.382401 
L 50.58248 135.851635 
L 51.448926 135.317315 
L 52.343643 134.779032 
L 53.267552 134.235903 
L 54.221608 133.687128 
L 55.206792 133.134147 
L 56.224122 132.575011 
L 57.274645 132.008591 
L 58.359445 131.435069 
L 59.479641 130.853489 
L 60.636386 130.263153 
L 61.830874 129.664023 
L 63.064336 129.056158 
L 64.338044 128.438609 
L 65.653311 127.810773 
L 67.011493 127.172192 
L 68.41399 126.522236 
L 69.862248 125.860368 
L 71.357761 125.186031 
L 72.902069 124.498831 
L 74.496766 123.798774 
L 76.143495 123.084622 
L 77.843954 122.3561 
L 79.599896 121.612978 
L 81.413132 120.854382 
L 83.28553 120.079758 
L 85.219022 119.288511 
L 87.2156 118.479956 
L 89.277323 117.653478 
L 91.406317 116.808463 
L 93.604776 115.944837 
L 95.874967 115.061325 
L 98.219231 114.157448 
L 100.639984 113.232531 
L 103.139723 112.285749 
L 105.721023 111.316417 
L 108.386547 110.323733 
L 111.139043 109.306902 
L 113.981348 108.265122 
L 116.916393 107.197742 
L 119.947203 106.103803 
L 123.076903 104.982446 
L 126.308721 103.832727 
L 129.645987 102.653932 
L 133.092142 101.445088 
L 136.65074 100.205111 
L 140.325449 98.933051 
L 144.120057 97.627832 
L 148.038477 96.288392 
L 152.084749 94.913588 
L 156.263044 93.502272 
L 160.577669 92.053254 
L 165.033073 90.565304 
L 169.63385 89.03716 
L 174.384743 87.467517 
L 179.290649 85.855032 
L 184.356626 84.19832 
L 189.587898 82.495951 
L 194.989857 80.746452 
L 200.568074 78.948302 
L 206.328298 77.099932 
L 212.276468 75.199725 
L 218.418718 73.246011 
L 224.761379 71.237069 
L 231.31099 69.171292 
L 238.074304 67.046817 
L 245.058293 64.861739 
L 252.270158 62.614112 
L 259.717335 60.301945 
L 267.4075 57.923141 
" clip-path="url(#pf0c3b24e3b)" style="fill: none; stroke: #6a8bef; stroke-width: 1.3; stroke-linecap: square"/>
   </g>
   <g id="line2d_14">
    <path d="M 34.1625 170.2 
L 34.49319 168.432648 
L 34.834669 166.60763 
L 35.18729 164.723065 
L 35.551417 162.77701 
L 35.927425 160.767458 
L 36.315701 158.692338 
L 36.716646 156.54951 
L 37.130673 154.336765 
L 37.558209 152.051822 
L 37.999695 149.692325 
L 38.455586 147.255842 
L 38.926351 144.739861 
L 39.412478 143.360102 
L 39.914465 142.48273 
L 40.432832 141.742485 
L 40.968112 141.081328 
L 41.520857 140.47815 
L 42.091637 139.904954 
L 42.681041 139.353954 
L 43.289677 138.81995 
L 43.918171 138.295834 
L 44.567171 137.779522 
L 45.237348 137.270801 
L 45.929391 136.764688 
L 46.644015 136.259863 
L 47.381955 135.754906 
L 48.143974 135.251467 
L 48.930855 134.745596 
L 49.743411 134.237016 
L 50.58248 133.724661 
L 51.448926 133.208741 
L 52.343643 132.688542 
L 53.267552 132.163127 
L 54.221608 131.631353 
L 55.206792 131.092972 
L 56.224122 130.547903 
L 57.274645 129.995101 
L 58.359445 129.435131 
L 59.479641 128.866309 
L 60.636386 128.288276 
L 61.830874 127.700764 
L 63.064336 127.103439 
L 64.338044 126.495625 
L 65.653311 125.877277 
L 67.011493 125.247747 
L 68.41399 124.606228 
L 69.862248 123.952325 
L 71.357761 123.285438 
L 72.902069 122.605378 
L 74.496766 121.91151 
L 76.143495 121.203168 
L 77.843954 120.480398 
L 79.599896 119.742284 
L 81.413132 118.988215 
L 83.28553 118.217644 
L 85.219022 117.429949 
L 87.2156 116.624517 
L 89.277323 115.800716 
L 91.406317 114.958008 
L 93.604776 114.095867 
L 95.874967 113.213458 
L 98.219231 112.310722 
L 100.639984 111.386395 
L 103.139723 110.439936 
L 105.721023 109.47052 
L 108.386547 108.4774 
L 111.139043 107.459804 
L 113.981348 106.416884 
L 116.916393 105.347842 
L 119.947203 104.25181 
L 123.076903 103.127902 
L 126.308721 101.975206 
L 129.645987 100.792784 
L 133.092142 99.579672 
L 136.65074 98.335182 
L 140.325449 97.058403 
L 144.120057 95.748122 
L 148.038477 94.403304 
L 152.084749 93.022777 
L 156.263044 91.605416 
L 160.577669 90.149986 
L 165.033073 88.655286 
L 169.63385 87.120058 
L 174.384743 85.542996 
L 179.290649 83.922759 
L 184.356626 82.257957 
L 189.587898 80.547161 
L 194.989857 78.788895 
L 200.568074 76.981638 
L 206.328298 75.123822 
L 212.276468 73.213831 
L 218.418718 71.249997 
L 224.761379 69.2306 
L 231.31099 67.153866 
L 238.074304 65.017967 
L 245.058293 62.821287 
L 252.270158 60.561718 
L 259.717335 58.237318 
L 267.4075 55.845971 
" clip-path="url(#pf0c3b24e3b)" style="fill: none; stroke: #85a8fc; stroke-width: 1.3; stroke-linecap: square"/>
   </g>
   <g id="line2d_15">
    <path d="M 34.1625 170.2 
L 34.49319 168.432648 
L 34.834669 166.60763 
L 35.18729 164.723065 
L 35.551417 162.77701 
L 35.927425 160.767458 
L 36.315701 158.692338 
L 36.716646 156.54951 
L 37.130673 154.336765 
L 37.558209 152.051822 
L 37.999695 149.692325 
L 38.455586 147.255842 
L 38.926351 144.739861 
L 39.412478 142.141787 
L 39.914465 139.458943 
L 40.432832 138.135289 
L 40.968112 137.434012 
L 41.520857 136.845025 
L 42.091637 136.303413 
L 42.681041 135.790259 
L 43.289677 135.291096 
L 43.918171 134.807881 
L 44.567171 134.330052 
L 45.237348 133.854778 
L 45.929391 133.384028 
L 46.644015 132.912581 
L 47.381955 132.4401 
L 48.143974 131.965469 
L 48.930855 131.4885 
L 49.743411 131.007251 
L 50.58248 130.52179 
L 51.448926 130.030305 
L 52.343643 129.533958 
L 53.267552 129.030995 
L 54.221608 128.521331 
L 55.206792 128.003549 
L 56.224122 127.478074 
L 57.274645 126.944546 
L 58.359445 126.402442 
L 59.479641 125.850679 
L 60.636386 125.288764 
L 61.830874 124.716487 
L 63.064336 124.134129 
L 64.338044 123.540871 
L 65.653311 122.935938 
L 67.011493 122.318741 
L 68.41399 121.688714 
L 69.862248 121.045503 
L 71.357761 120.389475 
L 72.902069 119.719595 
L 74.496766 119.035432 
L 76.143495 118.336225 
L 77.843954 117.621419 
L 79.599896 116.890401 
L 81.413132 116.142628 
L 83.28553 115.378014 
L 85.219022 114.596176 
L 87.2156 113.796195 
L 89.277323 112.977452 
L 91.406317 112.139231 
L 93.604776 111.280915 
L 95.874967 110.401784 
L 98.219231 109.501166 
L 100.639984 108.57833 
L 103.139723 107.632691 
L 105.721023 106.663886 
L 108.386547 105.670985 
L 111.139043 104.653374 
L 113.981348 103.610011 
L 116.916393 102.540125 
L 119.947203 101.442799 
L 123.076903 100.317128 
L 126.308721 99.162204 
L 129.645987 97.977093 
L 133.092142 96.760828 
L 136.65074 95.512412 
L 140.325449 94.230871 
L 144.120057 92.915183 
L 148.038477 91.564677 
L 152.084749 90.177915 
L 156.263044 88.753915 
L 160.577669 87.291348 
L 165.033073 85.789151 
L 169.63385 84.246129 
L 174.384743 82.660882 
L 179.290649 81.032084 
L 184.356626 79.35832 
L 189.587898 77.638157 
L 194.989857 75.870113 
L 200.568074 74.052682 
L 206.328298 72.1843 
L 212.276468 70.263353 
L 218.418718 68.288173 
L 224.761379 66.25704 
L 231.31099 64.168181 
L 238.074304 62.019766 
L 245.058293 59.809909 
L 252.270158 57.536676 
L 259.717335 55.198237 
L 267.4075 52.792579 
" clip-path="url(#pf0c3b24e3b)" style="fill: none; stroke: #a1c0ff; stroke-width: 1.3; stroke-linecap: square"/>
   </g>
   <g id="line2d_16">
    <path d="M 34.1625 170.2 
L 34.49319 168.432648 
L 34.834669 166.60763 
L 35.18729 164.723065 
L 35.551417 162.77701 
L 35.927425 160.767458 
L 36.315701 158.692338 
L 36.716646 156.54951 
L 37.130673 154.336765 
L 37.558209 152.051822 
L 37.999695 149.692325 
L 38.455586 147.255842 
L 38.926351 144.739861 
L 39.412478 142.141787 
L 39.914465 139.458943 
L 40.432832 136.688561 
L 40.968112 133.827787 
L 41.520857 132.349371 
L 42.091637 131.830743 
L 42.681041 131.360256 
L 43.289677 130.908296 
L 43.918171 130.471922 
L 44.567171 130.035373 
L 45.237348 129.603973 
L 45.929391 129.17129 
L 46.644015 128.736822 
L 47.381955 128.299571 
L 48.143974 127.858548 
L 48.930855 127.413026 
L 49.743411 126.96178 
L 50.58248 126.505078 
L 51.448926 126.041674 
L 52.343643 125.570592 
L 53.267552 125.092859 
L 54.221608 124.606834 
L 55.206792 124.111721 
L 56.224122 123.608399 
L 57.274645 123.0958 
L 58.359445 122.573042 
L 59.479641 122.039886 
L 60.636386 121.496488 
L 61.830874 120.942286 
L 63.064336 120.376271 
L 64.338044 119.798154 
L 65.653311 119.207805 
L 67.011493 118.604884 
L 68.41399 117.988985 
L 69.862248 117.359145 
L 71.357761 116.715005 
L 72.902069 116.056339 
L 74.496766 115.382568 
L 76.143495 114.69339 
L 77.843954 113.988303 
L 79.599896 113.266469 
L 81.413132 112.527417 
L 83.28553 111.770722 
L 85.219022 110.995791 
L 87.2156 110.201969 
L 89.277323 109.388776 
L 91.406317 108.555885 
L 93.604776 107.702308 
L 95.874967 106.827434 
L 98.219231 105.930675 
L 100.639984 105.011443 
L 103.139723 104.068823 
L 105.721023 103.102039 
L 108.386547 102.110349 
L 111.139043 101.093058 
L 113.981348 100.049813 
L 116.916393 98.979522 
L 119.947203 97.881371 
L 123.076903 96.75438 
L 126.308721 95.597739 
L 129.645987 94.410614 
L 133.092142 93.191978 
L 136.65074 91.94078 
L 140.325449 90.655965 
L 144.120057 89.336453 
L 148.038477 87.981151 
L 152.084749 86.588967 
L 156.263044 85.158864 
L 160.577669 83.689994 
L 165.033073 82.180943 
L 169.63385 80.630549 
L 174.384743 79.037427 
L 179.290649 77.400286 
L 184.356626 75.717709 
L 189.587898 73.988271 
L 194.989857 72.210506 
L 200.568074 70.383006 
L 206.328298 68.50423 
L 212.276468 66.572509 
L 218.418718 64.586168 
L 224.761379 62.543472 
L 231.31099 60.442641 
L 238.074304 58.281846 
L 245.058293 56.059214 
L 252.270158 53.772804 
L 259.717335 51.420613 
L 267.4075 49.000588 
" clip-path="url(#pf0c3b24e3b)" style="fill: none; stroke: #bbd1f8; stroke-width: 1.3; stroke-linecap: square"/>
   </g>
   <g id="line2d_17">
    <path d="M 34.1625 170.2 
L 34.49319 168.432648 
L 34.834669 166.60763 
L 35.18729 164.723065 
L 35.551417 162.77701 
L 35.927425 160.767458 
L 36.315701 158.692338 
L 36.716646 156.54951 
L 37.130673 154.336765 
L 37.558209 152.051822 
L 37.999695 149.692325 
L 38.455586 147.255842 
L 38.926351 144.739861 
L 39.412478 142.141787 
L 39.914465 139.458943 
L 40.432832 136.688561 
L 40.968112 133.827787 
L 41.520857 130.873671 
L 42.091637 127.823167 
L 42.681041 126.19847 
L 43.289677 125.799159 
L 43.918171 125.408165 
L 44.567171 125.01955 
L 45.237348 124.62951 
L 45.929391 124.236828 
L 46.644015 123.839911 
L 47.381955 123.437923 
L 48.143974 123.030168 
L 48.930855 122.615715 
L 49.743411 122.19511 
L 50.58248 121.765948 
L 51.448926 121.330327 
L 52.343643 120.885868 
L 53.267552 120.431439 
L 54.221608 119.970182 
L 55.206792 119.498234 
L 56.224122 119.015781 
L 57.274645 118.524452 
L 58.359445 118.021888 
L 59.479641 117.508073 
L 60.636386 116.982925 
L 61.830874 116.446138 
L 63.064336 115.897119 
L 64.338044 115.335335 
L 65.653311 114.760244 
L 67.011493 114.172046 
L 68.41399 113.570172 
L 69.862248 112.953815 
L 71.357761 112.322244 
L 72.902069 111.675402 
L 74.496766 111.013395 
L 76.143495 110.33537 
L 77.843954 109.640432 
L 79.599896 108.927939 
L 81.413132 108.197288 
L 83.28553 107.44895 
L 85.219022 106.682301 
L 87.2156 105.896262 
L 89.277323 105.090064 
L 91.406317 104.262992 
L 93.604776 103.414378 
L 95.874967 102.543942 
L 98.219231 101.651449 
L 100.639984 100.736238 
L 103.139723 99.797236 
L 105.721023 98.833614 
L 108.386547 97.844515 
L 111.139043 96.829116 
L 113.981348 95.786651 
L 116.916393 94.716559 
L 119.947203 93.617976 
L 123.076903 92.490269 
L 126.308721 91.33259 
L 129.645987 90.143902 
L 133.092142 88.923202 
L 136.65074 87.669465 
L 140.325449 86.381652 
L 144.120057 85.058663 
L 148.038477 83.699381 
L 152.084749 82.302836 
L 156.263044 80.867904 
L 160.577669 79.393339 
L 165.033073 77.877923 
L 169.63385 76.320433 
L 174.384743 74.719996 
L 179.290649 73.075096 
L 184.356626 71.384342 
L 189.587898 69.646282 
L 194.989857 67.859447 
L 200.568074 66.022343 
L 206.328298 64.133435 
L 212.276468 62.191086 
L 218.418718 60.193637 
L 224.761379 58.139361 
L 231.31099 56.026482 
L 238.074304 53.853223 
L 245.058293 51.617809 
L 252.270158 49.318276 
L 259.717335 46.952587 
L 267.4075 44.518656 
" clip-path="url(#pf0c3b24e3b)" style="fill: none; stroke: #d3dbe7; stroke-width: 1.3; stroke-linecap: square"/>
   </g>
   <g id="line2d_18">
    <path d="M 34.1625 170.2 
L 34.49319 168.432648 
L 34.834669 166.60763 
L 35.18729 164.723065 
L 35.551417 162.77701 
L 35.927425 160.767458 
L 36.315701 158.692338 
L 36.716646 156.54951 
L 37.130673 154.336765 
L 37.558209 152.051822 
L 37.999695 149.692325 
L 38.455586 147.255842 
L 38.926351 144.739861 
L 39.412478 142.141787 
L 39.914465 139.458943 
L 40.432832 136.688561 
L 40.968112 133.827787 
L 41.520857 130.873671 
L 42.091637 127.823167 
L 42.681041 124.673129 
L 43.289677 121.420312 
L 43.918171 119.676296 
L 44.567171 119.329115 
L 45.237348 118.977311 
L 45.929391 118.619976 
L 46.644015 118.256484 
L 47.381955 117.885466 
L 48.143974 117.507945 
L 48.930855 117.121886 
L 49.743411 116.728034 
L 50.58248 116.325329 
L 51.448926 115.913826 
L 52.343643 115.492857 
L 53.267552 115.062624 
L 54.221608 114.621732 
L 55.206792 114.171405 
L 56.224122 113.709919 
L 57.274645 113.237162 
L 58.359445 112.753736 
L 59.479641 112.257995 
L 60.636386 111.750326 
L 61.830874 111.230228 
L 63.064336 110.697072 
L 64.338044 110.150918 
L 65.653311 109.590843 
L 67.011493 109.016863 
L 68.41399 108.428357 
L 69.862248 107.824798 
L 71.357761 107.20588 
L 72.902069 106.571634 
L 74.496766 105.920529 
L 76.143495 105.252537 
L 77.843954 104.567608 
L 79.599896 103.865383 
L 81.413132 103.144613 
L 83.28553 102.404514 
L 85.219022 101.64513 
L 87.2156 100.866175 
L 89.277323 100.066691 
L 91.406317 99.24643 
L 93.604776 98.404134 
L 95.874967 97.539274 
L 98.219231 96.651619 
L 100.639984 95.740244 
L 103.139723 94.804374 
L 105.721023 93.843302 
L 108.386547 92.856704 
L 111.139043 91.843552 
L 113.981348 90.803241 
L 116.916393 89.734723 
L 119.947203 88.637097 
L 123.076903 87.509384 
L 126.308721 86.35069 
L 129.645987 85.160135 
L 133.092142 83.936894 
L 136.65074 82.680622 
L 140.325449 81.390218 
L 144.120057 80.064313 
L 148.038477 78.701696 
L 152.084749 77.301235 
L 156.263044 75.861819 
L 160.577669 74.382213 
L 165.033073 72.861176 
L 169.63385 71.29743 
L 174.384743 69.689677 
L 179.290649 68.036635 
L 184.356626 66.337307 
L 189.587898 64.590513 
L 194.989857 62.794774 
L 200.568074 60.948389 
L 206.328298 59.049728 
L 212.276468 57.097149 
L 218.418718 55.088984 
L 224.761379 53.023505 
L 231.31099 50.898934 
L 238.074304 48.713455 
L 245.058293 46.465243 
L 252.270158 44.152376 
L 259.717335 41.772843 
L 267.4075 39.324566 
" clip-path="url(#pf0c3b24e3b)" style="fill: none; stroke: #e6d7cf; stroke-width: 1.3; stroke-linecap: square"/>
   </g>
   <g id="line2d_19">
    <path d="M 34.1625 170.2 
L 34.49319 168.432648 
L 34.834669 166.60763 
L 35.18729 164.723065 
L 35.551417 162.77701 
L 35.927425 160.767458 
L 36.315701 158.692338 
L 36.716646 156.54951 
L 37.130673 154.336765 
L 37.558209 152.051822 
L 37.999695 149.692325 
L 38.455586 147.255842 
L 38.926351 144.739861 
L 39.412478 142.141787 
L 39.914465 139.458943 
L 40.432832 136.688561 
L 40.968112 133.827787 
L 41.520857 130.873671 
L 42.091637 127.823167 
L 42.681041 124.673129 
L 43.289677 121.420312 
L 43.918171 118.061361 
L 44.567171 114.592812 
L 45.237348 112.630479 
L 45.929391 112.301084 
L 46.644015 111.963767 
L 47.381955 111.618424 
L 48.143974 111.264643 
L 48.930855 110.901944 
L 49.743411 110.530192 
L 50.58248 110.149218 
L 51.448926 109.758477 
L 52.343643 109.357515 
L 53.267552 108.946839 
L 54.221608 108.524932 
L 55.206792 108.092735 
L 56.224122 107.648871 
L 57.274645 107.193585 
L 58.359445 106.726295 
L 59.479641 106.246825 
L 60.636386 105.75462 
L 61.830874 105.249435 
L 63.064336 104.730938 
L 64.338044 104.198593 
L 65.653311 103.652183 
L 67.011493 103.09108 
L 68.41399 102.5152 
L 69.862248 101.923701 
L 71.357761 101.316246 
L 72.902069 100.692977 
L 74.496766 100.052723 
L 76.143495 99.394863 
L 77.843954 98.719546 
L 79.599896 98.026426 
L 81.413132 97.314334 
L 83.28553 96.582627 
L 85.219022 95.830697 
L 87.2156 95.059024 
L 89.277323 94.266569 
L 91.406317 93.45251 
L 93.604776 92.615796 
L 95.874967 91.755756 
L 98.219231 90.872419 
L 100.639984 89.96613 
L 103.139723 89.034531 
L 105.721023 88.076866 
L 108.386547 87.092401 
L 111.139043 86.080554 
L 113.981348 85.041603 
L 116.916393 83.974469 
L 119.947203 82.878019 
L 123.076903 81.750889 
L 126.308721 80.592057 
L 129.645987 79.400638 
L 133.092142 78.175997 
L 136.65074 76.917283 
L 140.325449 75.623683 
L 144.120057 74.294147 
L 148.038477 72.927791 
L 152.084749 71.52338 
L 156.263044 70.079464 
L 160.577669 68.59484 
L 165.033073 67.06847 
L 169.63385 65.498975 
L 174.384743 63.884904 
L 179.290649 62.224865 
L 184.356626 60.517685 
L 189.587898 58.762028 
L 194.989857 56.956526 
L 200.568074 55.099769 
L 206.328298 53.190319 
L 212.276468 51.226859 
L 218.418718 49.207601 
L 224.761379 47.130872 
L 231.31099 44.994701 
L 238.074304 42.797155 
L 245.058293 40.536296 
L 252.270158 38.210161 
L 259.717335 35.816755 
L 267.4075 33.353909 
" clip-path="url(#pf0c3b24e3b)" style="fill: none; stroke: #f3c7b1; stroke-width: 1.3; stroke-linecap: square"/>
   </g>
   <g id="line2d_20">
    <path d="M 34.1625 170.2 
L 34.49319 168.432648 
L 34.834669 166.60763 
L 35.18729 164.723065 
L 35.551417 162.77701 
L 35.927425 160.767458 
L 36.315701 158.692338 
L 36.716646 156.54951 
L 37.130673 154.336765 
L 37.558209 152.051822 
L 37.999695 149.692325 
L 38.455586 147.255842 
L 38.926351 144.739861 
L 39.412478 142.141787 
L 39.914465 139.458943 
L 40.432832 136.688561 
L 40.968112 133.827787 
L 41.520857 130.873671 
L 42.091637 127.823167 
L 42.681041 124.673129 
L 43.289677 121.420312 
L 43.918171 118.061361 
L 44.567171 114.592812 
L 45.237348 111.011091 
L 45.929391 107.312504 
L 46.644015 104.880129 
L 47.381955 104.553397 
L 48.143974 104.217675 
L 48.930855 103.87285 
L 49.743411 103.518417 
L 50.58248 103.154053 
L 51.448926 102.779803 
L 52.343643 102.395219 
L 53.267552 101.999844 
L 54.221608 101.593635 
L 55.206792 101.175964 
L 56.224122 100.746731 
L 57.274645 100.305772 
L 58.359445 99.852186 
L 59.479641 99.386336 
L 60.636386 98.907231 
L 61.830874 98.414907 
L 63.064336 97.908796 
L 64.338044 97.388548 
L 65.653311 96.853843 
L 67.011493 96.304174 
L 68.41399 95.739119 
L 69.862248 95.158436 
L 71.357761 94.561353 
L 72.902069 93.947629 
L 74.496766 93.317138 
L 76.143495 92.668425 
L 77.843954 92.001901 
L 79.599896 91.317007 
L 81.413132 90.612572 
L 83.28553 89.888388 
L 85.219022 89.144032 
L 87.2156 88.37892 
L 89.277323 87.592404 
L 91.406317 86.783847 
L 93.604776 85.952388 
L 95.874967 85.097874 
L 98.219231 84.219194 
L 100.639984 83.316159 
L 103.139723 82.387943 
L 105.721023 81.433338 
L 108.386547 80.45167 
L 111.139043 79.442257 
L 113.981348 78.404668 
L 116.916393 77.338611 
L 119.947203 76.242554 
L 123.076903 75.11523 
L 126.308721 73.955628 
L 129.645987 72.763304 
L 133.092142 71.537581 
L 136.65074 70.277549 
L 140.325449 68.98167 
L 144.120057 67.648958 
L 148.038477 66.278373 
L 152.084749 64.868866 
L 156.263044 63.419543 
L 160.577669 61.92922 
L 165.033073 60.397441 
L 169.63385 58.822141 
L 174.384743 57.201698 
L 179.290649 55.534654 
L 184.356626 53.819613 
L 189.587898 52.055223 
L 194.989857 50.240383 
L 200.568074 48.373738 
L 206.328298 46.453608 
L 212.276468 44.478402 
L 218.418718 42.446678 
L 224.761379 40.357027 
L 231.31099 38.207949 
L 238.074304 35.997343 
L 245.058293 33.72297 
L 252.270158 31.382696 
L 259.717335 28.974698 
L 267.4075 26.500105 
" clip-path="url(#pf0c3b24e3b)" style="fill: none; stroke: #f7af91; stroke-width: 1.3; stroke-linecap: square"/>
   </g>
   <g id="line2d_21">
    <path d="M 34.1625 170.2 
L 34.49319 168.432648 
L 34.834669 166.60763 
L 35.18729 164.723065 
L 35.551417 162.77701 
L 35.927425 160.767458 
L 36.315701 158.692338 
L 36.716646 156.54951 
L 37.130673 154.336765 
L 37.558209 152.051822 
L 37.999695 149.692325 
L 38.455586 147.255842 
L 38.926351 144.739861 
L 39.412478 142.141787 
L 39.914465 139.458943 
L 40.432832 136.688561 
L 40.968112 133.827787 
L 41.520857 130.873671 
L 42.091637 127.823167 
L 42.681041 124.673129 
L 43.289677 121.420312 
L 43.918171 118.061361 
L 44.567171 114.592812 
L 45.237348 111.011091 
L 45.929391 107.312504 
L 46.644015 103.493238 
L 47.381955 99.549357 
L 48.143974 96.187187 
L 48.930855 95.855145 
L 49.743411 95.513312 
L 50.58248 95.161613 
L 51.448926 94.799582 
L 52.343643 94.426909 
L 53.267552 94.043434 
L 54.221608 93.648846 
L 55.206792 93.242741 
L 56.224122 92.82491 
L 57.274645 92.394925 
L 58.359445 91.952396 
L 59.479641 91.497042 
L 60.636386 91.028485 
L 61.830874 90.546299 
L 63.064336 90.050018 
L 64.338044 89.539759 
L 65.653311 89.014428 
L 67.011493 88.474095 
L 68.41399 87.918053 
L 69.862248 87.345927 
L 71.357761 86.757381 
L 72.902069 86.151933 
L 74.496766 85.528842 
L 76.143495 84.888093 
L 77.843954 84.228511 
L 79.599896 83.550418 
L 81.413132 82.852597 
L 83.28553 82.134447 
L 85.219022 81.396125 
L 87.2156 80.636386 
L 89.277323 79.854854 
L 91.406317 79.050938 
L 93.604776 78.223858 
L 95.874967 77.37319 
L 98.219231 76.498223 
L 100.639984 75.59802 
L 103.139723 74.672064 
L 105.721023 73.719742 
L 108.386547 72.740009 
L 111.139043 71.732053 
L 113.981348 70.695287 
L 116.916393 69.629003 
L 119.947203 68.532719 
L 123.076903 67.404871 
L 126.308721 66.2443 
L 129.645987 65.050181 
L 133.092142 63.821924 
L 136.65074 62.558892 
L 140.325449 61.259744 
L 144.120057 59.923482 
L 148.038477 58.548558 
L 152.084749 57.134002 
L 156.263044 55.679138 
L 160.577669 54.183118 
L 165.033073 52.64445 
L 169.63385 51.061604 
L 174.384743 49.433 
L 179.290649 47.757325 
L 184.356626 46.033519 
L 189.587898 44.260072 
L 194.989857 42.435494 
L 200.568074 40.558587 
L 206.328298 38.62748 
L 212.276468 36.640506 
L 218.418718 34.596097 
L 224.761379 32.492714 
L 231.31099 30.328847 
L 238.074304 28.103101 
L 245.058293 25.813153 
L 252.270158 23.456602 
L 259.717335 21.034046 
L 267.4075 18.626402 
" clip-path="url(#pf0c3b24e3b)" style="fill: none; stroke: #f29072; stroke-width: 1.3; stroke-linecap: square"/>
   </g>
   <g id="line2d_22">
    <path d="M 34.1625 170.2 
L 34.49319 168.432648 
L 34.834669 166.60763 
L 35.18729 164.723065 
L 35.551417 162.77701 
L 35.927425 160.767458 
L 36.315701 158.692338 
L 36.716646 156.54951 
L 37.130673 154.336765 
L 37.558209 152.051822 
L 37.999695 149.692325 
L 38.455586 147.255842 
L 38.926351 144.739861 
L 39.412478 142.141787 
L 39.914465 139.458943 
L 40.432832 136.688561 
L 40.968112 133.827787 
L 41.520857 130.873671 
L 42.091637 127.823167 
L 42.681041 124.673129 
L 43.289677 121.420312 
L 43.918171 118.061361 
L 44.567171 114.592812 
L 45.237348 111.011091 
L 45.929391 107.312504 
L 46.644015 103.493238 
L 47.381955 99.549357 
L 48.143974 95.476792 
L 48.930855 91.271347 
L 49.743411 86.928686 
L 50.58248 85.60111 
L 51.448926 85.249117 
L 52.343643 84.886529 
L 53.267552 84.513001 
L 54.221608 84.128196 
L 55.206792 83.731957 
L 56.224122 83.323832 
L 57.274645 82.903465 
L 58.359445 82.470582 
L 59.479641 82.02483 
L 60.636386 81.565671 
L 61.830874 81.092906 
L 63.064336 80.606146 
L 64.338044 80.104851 
L 65.653311 79.58868 
L 67.011493 79.057194 
L 68.41399 78.51011 
L 69.862248 77.946734 
L 71.357761 77.366691 
L 72.902069 76.76963 
L 74.496766 76.154902 
L 76.143495 75.521983 
L 77.843954 74.870624 
L 79.599896 74.199947 
L 81.413132 73.509647 
L 83.28553 72.799177 
L 85.219022 72.067595 
L 87.2156 71.314952 
L 89.277323 70.540139 
L 91.406317 69.742617 
L 93.604776 68.921808 
L 95.874967 68.077069 
L 98.219231 67.207956 
L 100.639984 66.313032 
L 103.139723 65.392033 
L 105.721023 64.444853 
L 108.386547 63.469679 
L 111.139043 62.465966 
L 113.981348 61.433429 
L 116.916393 60.371194 
L 119.947203 59.277886 
L 123.076903 58.15268 
L 126.308721 56.994771 
L 129.645987 55.803152 
L 133.092142 54.577396 
L 136.65074 53.316144 
L 140.325449 52.01841 
L 144.120057 50.683029 
L 148.038477 49.308714 
L 152.084749 47.894459 
L 156.263044 46.439397 
L 160.577669 44.943364 
L 165.033073 43.404285 
L 169.63385 41.820338 
L 174.384743 40.190084 
L 179.290649 38.51225 
L 184.356626 36.785746 
L 189.587898 35.009778 
L 194.989857 33.182477 
L 200.568074 31.302397 
L 206.328298 29.367937 
L 212.276468 27.377065 
L 218.418718 25.328214 
L 224.761379 23.220054 
L 231.31099 21.05115 
L 238.074304 18.819796 
L 245.058293 16.524049 
L 252.270158 14.163601 
L 259.717335 11.75666 
L 267.4075 9.47619 
" clip-path="url(#pf0c3b24e3b)" style="fill: none; stroke: #e36c55; stroke-width: 1.3; stroke-linecap: square"/>
   </g>
   <g id="line2d_23">
    <path d="M 34.1625 170.2 
L 66.195764 -1 
" clip-path="url(#pf0c3b24e3b)" style="fill: none; stroke-dasharray: 2.96,1.28; stroke-dashoffset: 0; stroke: #000000; stroke-opacity: 0.4; stroke-width: 0.8"/>
   </g>
   <g id="patch_3">
    <path d="M 34.1625 170.2 
L 34.1625 1.44 
" style="fill: none; stroke: #000000; stroke-width: 0.6; stroke-linejoin: miter; stroke-linecap: square"/>
   </g>
   <g id="patch_4">
    <path d="M 34.1625 170.2 
L 267.4075 170.2 
" style="fill: none; stroke: #000000; stroke-width: 0.6; stroke-linejoin: miter; stroke-linecap: square"/>
   </g>
   <g id="legend_1">
    <g id="patch_5">
     <path d="M 183.3375 166.7 
L 262.5075 166.7 
Q 263.9075 166.7 263.9075 165.3 
L 263.9075 124.745937 
Q 263.9075 123.345937 262.5075 123.345937 
L 183.3375 123.345937 
Q 181.9375 123.345937 181.9375 124.745937 
L 181.9375 165.3 
Q 181.9375 166.7 183.3375 166.7 
z
" style="fill: #ffffff; opacity: 0.9; stroke: #cccccc; stroke-linejoin: miter"/>
    </g>
    <g id="line2d_24">
     <path d="M 184.7375 129.014844 
L 191.7375 129.014844 
L 198.7375 129.014844 
" style="fill: none; stroke: #6a8bef; stroke-width: 1.3; stroke-linecap: square"/>
    </g>
    <g id="text_15">
     <!-- Low $z$ ($z=0.38$) -->
     <g transform="translate(204.3375 131.464844) scale(0.07 -0.07)">
      <defs>
       <path id="DejaVuSerif-4c" d="M 353 0 
L 353 331 
L 947 331 
L 947 4331 
L 353 4331 
L 353 4666 
L 2175 4666 
L 2175 4331 
L 1581 4331 
L 1581 384 
L 3713 384 
L 3713 1166 
L 4097 1166 
L 4097 0 
L 353 0 
z
" transform="scale(0.015625)"/>
       <path id="DejaVuSerif-77" d="M 3072 3322 
L 3922 728 
L 4672 2988 
L 4191 2988 
L 4191 3322 
L 5394 3322 
L 5394 2988 
L 5025 2988 
L 4038 0 
L 3559 0 
L 2741 2484 
L 1919 0 
L 1459 0 
L 475 2988 
L 103 2988 
L 103 3322 
L 1606 3322 
L 1606 2988 
L 1069 2988 
L 1813 728 
L 2669 3322 
L 3072 3322 
z
" transform="scale(0.015625)"/>
       <path id="DejaVuSerif-28" d="M 2041 -997 
Q 1281 -656 893 83 
Q 506 822 506 1931 
Q 506 3044 893 3783 
Q 1281 4522 2041 4863 
L 2041 4556 
Q 1559 4225 1350 3623 
Q 1141 3022 1141 1931 
Q 1141 844 1350 242 
Q 1559 -359 2041 -691 
L 2041 -997 
z
" transform="scale(0.015625)"/>
       <path id="Cmr10-3d" d="M 481 850 
Q 428 850 393 890 
Q 359 931 359 978 
Q 359 1031 393 1068 
Q 428 1106 481 1106 
L 4500 1106 
Q 4547 1106 4581 1068 
Q 4616 1031 4616 978 
Q 4616 931 4581 890 
Q 4547 850 4500 850 
L 481 850 
z
M 481 2094 
Q 428 2094 393 2131 
Q 359 2169 359 2222 
Q 359 2269 393 2309 
Q 428 2350 481 2350 
L 4500 2350 
Q 4547 2350 4581 2309 
Q 4616 2269 4616 2222 
Q 4616 2169 4581 2131 
Q 4547 2094 4500 2094 
L 481 2094 
z
" transform="scale(0.015625)"/>
       <path id="Cmr10-30" d="M 1600 -141 
Q 816 -141 533 504 
Q 250 1150 250 2041 
Q 250 2597 351 3087 
Q 453 3578 754 3920 
Q 1056 4263 1600 4263 
Q 2022 4263 2290 4056 
Q 2559 3850 2700 3523 
Q 2841 3197 2892 2823 
Q 2944 2450 2944 2041 
Q 2944 1491 2842 1011 
Q 2741 531 2444 195 
Q 2147 -141 1600 -141 
z
M 1600 25 
Q 1956 25 2131 390 
Q 2306 756 2347 1200 
Q 2388 1644 2388 2144 
Q 2388 2625 2347 3031 
Q 2306 3438 2132 3767 
Q 1959 4097 1600 4097 
Q 1238 4097 1063 3765 
Q 888 3434 847 3029 
Q 806 2625 806 2144 
Q 806 1788 823 1472 
Q 841 1156 916 820 
Q 991 484 1158 254 
Q 1325 25 1600 25 
z
" transform="scale(0.015625)"/>
       <path id="Cmmi10-3a" d="M 538 353 
Q 538 497 644 600 
Q 750 703 891 703 
Q 978 703 1062 656 
Q 1147 609 1194 525 
Q 1241 441 1241 353 
Q 1241 213 1137 106 
Q 1034 0 891 0 
Q 750 0 644 106 
Q 538 213 538 353 
z
" transform="scale(0.015625)"/>
       <path id="Cmr10-33" d="M 609 494 
Q 759 275 1012 169 
Q 1266 63 1556 63 
Q 1928 63 2084 380 
Q 2241 697 2241 1100 
Q 2241 1281 2208 1462 
Q 2175 1644 2097 1800 
Q 2019 1956 1883 2050 
Q 1747 2144 1550 2144 
L 1125 2144 
Q 1069 2144 1069 2203 
L 1069 2259 
Q 1069 2309 1125 2309 
L 1478 2338 
Q 1703 2338 1851 2506 
Q 2000 2675 2069 2917 
Q 2138 3159 2138 3378 
Q 2138 3684 1994 3881 
Q 1850 4078 1556 4078 
Q 1313 4078 1091 3986 
Q 869 3894 738 3706 
Q 750 3709 759 3711 
Q 769 3713 781 3713 
Q 925 3713 1022 3613 
Q 1119 3513 1119 3372 
Q 1119 3234 1022 3134 
Q 925 3034 781 3034 
Q 641 3034 541 3134 
Q 441 3234 441 3372 
Q 441 3647 606 3850 
Q 772 4053 1033 4158 
Q 1294 4263 1556 4263 
Q 1750 4263 1965 4205 
Q 2181 4147 2356 4039 
Q 2531 3931 2642 3762 
Q 2753 3594 2753 3378 
Q 2753 3109 2633 2881 
Q 2513 2653 2303 2487 
Q 2094 2322 1844 2241 
Q 2122 2188 2372 2031 
Q 2622 1875 2773 1631 
Q 2925 1388 2925 1106 
Q 2925 753 2731 467 
Q 2538 181 2222 20 
Q 1906 -141 1556 -141 
Q 1256 -141 954 -26 
Q 653 88 461 316 
Q 269 544 269 863 
Q 269 1022 375 1128 
Q 481 1234 641 1234 
Q 744 1234 830 1186 
Q 916 1138 964 1050 
Q 1013 963 1013 863 
Q 1013 706 903 600 
Q 794 494 641 494 
L 609 494 
z
" transform="scale(0.015625)"/>
       <path id="Cmr10-38" d="M 269 972 
Q 269 1356 522 1651 
Q 775 1947 1172 2144 
L 934 2297 
Q 716 2441 578 2680 
Q 441 2919 441 3181 
Q 441 3488 602 3734 
Q 763 3981 1030 4122 
Q 1297 4263 1600 4263 
Q 1884 4263 2148 4147 
Q 2413 4031 2583 3815 
Q 2753 3600 2753 3303 
Q 2753 3088 2651 2903 
Q 2550 2719 2373 2572 
Q 2197 2425 1997 2322 
L 2363 2088 
Q 2616 1922 2770 1653 
Q 2925 1384 2925 1088 
Q 2925 741 2739 456 
Q 2553 172 2247 15 
Q 1941 -141 1600 -141 
Q 1269 -141 961 -6 
Q 653 128 461 383 
Q 269 638 269 972 
z
M 616 972 
Q 616 719 755 509 
Q 894 300 1122 181 
Q 1350 63 1600 63 
Q 1972 63 2275 280 
Q 2578 497 2578 856 
Q 2578 978 2529 1098 
Q 2481 1219 2395 1317 
Q 2309 1416 2203 1478 
L 1344 2034 
Q 1144 1928 976 1765 
Q 809 1603 712 1400 
Q 616 1197 616 972 
z
M 1056 2925 
L 1831 2425 
Q 2100 2581 2272 2803 
Q 2444 3025 2444 3303 
Q 2444 3519 2323 3698 
Q 2203 3878 2009 3978 
Q 1816 4078 1594 4078 
Q 1400 4078 1203 4003 
Q 1006 3928 878 3779 
Q 750 3631 750 3431 
Q 750 3131 1056 2925 
z
" transform="scale(0.015625)"/>
       <path id="DejaVuSerif-29" d="M 453 -997 
L 453 -691 
Q 934 -359 1145 242 
Q 1356 844 1356 1931 
Q 1356 3022 1145 3623 
Q 934 4225 453 4556 
L 453 4863 
Q 1216 4522 1603 3783 
Q 1991 3044 1991 1931 
Q 1991 822 1603 83 
Q 1216 -656 453 -997 
z
" transform="scale(0.015625)"/>
      </defs>
      <use xlink:href="#DejaVuSerif-4c" transform="translate(0 0.015625)"/>
      <use xlink:href="#DejaVuSerif-6f" transform="translate(66.40625 0.015625)"/>
      <use xlink:href="#DejaVuSerif-77" transform="translate(126.611328 0.015625)"/>
      <use xlink:href="#DejaVuSerif-20" transform="translate(212.207031 0.015625)"/>
      <use xlink:href="#Cmmi10-7a" transform="translate(243.994141 0.015625)"/>
      <use xlink:href="#DejaVuSerif-20" transform="translate(290.478516 0.015625)"/>
      <use xlink:href="#DejaVuSerif-28" transform="translate(322.265625 0.015625)"/>
      <use xlink:href="#Cmmi10-7a" transform="translate(361.279297 0.015625)"/>
      <use xlink:href="#Cmr10-3d" transform="translate(425.322266 0.015625)"/>
      <use xlink:href="#Cmr10-30" transform="translate(520.566406 0.015625)"/>
      <use xlink:href="#Cmmi10-3a" transform="translate(570.566406 0.015625)"/>
      <use xlink:href="#Cmr10-33" transform="translate(598.251953 0.015625)"/>
      <use xlink:href="#Cmr10-38" transform="translate(648.251953 0.015625)"/>
      <use xlink:href="#DejaVuSerif-29" transform="translate(698.251953 0.015625)"/>
     </g>
    </g>
    <g id="line2d_25">
     <path d="M 184.7375 139.289531 
L 191.7375 139.289531 
L 198.7375 139.289531 
" style="fill: none; stroke: #e6d7cf; stroke-width: 1.3; stroke-linecap: square"/>
    </g>
    <g id="text_16">
     <!-- Mean $z$ ($z=1.11$) -->
     <g transform="translate(204.3375 141.739531) scale(0.07 -0.07)">
      <defs>
       <path id="DejaVuSerif-4d" d="M 353 0 
L 353 331 
L 947 331 
L 947 4331 
L 319 4331 
L 319 4666 
L 1678 4666 
L 3316 1344 
L 4953 4666 
L 6228 4666 
L 6228 4331 
L 5606 4331 
L 5606 331 
L 6203 331 
L 6203 0 
L 4378 0 
L 4378 331 
L 4972 331 
L 4972 3938 
L 3372 684 
L 2931 684 
L 1331 3938 
L 1331 331 
L 1925 331 
L 1925 0 
L 353 0 
z
" transform="scale(0.015625)"/>
       <path id="DejaVuSerif-65" d="M 3469 1600 
L 991 1600 
L 991 1575 
Q 991 903 1244 561 
Q 1497 219 1991 219 
Q 2369 219 2611 417 
Q 2853 616 2950 1006 
L 3413 1006 
Q 3275 459 2904 184 
Q 2534 -91 1931 -91 
Q 1203 -91 761 389 
Q 319 869 319 1663 
Q 319 2450 753 2931 
Q 1188 3413 1894 3413 
Q 2647 3413 3050 2948 
Q 3453 2484 3469 1600 
z
M 2791 1931 
Q 2772 2513 2545 2808 
Q 2319 3103 1894 3103 
Q 1497 3103 1269 2806 
Q 1041 2509 991 1931 
L 2791 1931 
z
" transform="scale(0.015625)"/>
       <path id="Cmr10-31" d="M 594 0 
L 594 225 
Q 1394 225 1394 428 
L 1394 3788 
Q 1063 3628 556 3628 
L 556 3853 
Q 1341 3853 1741 4263 
L 1831 4263 
Q 1853 4263 1873 4245 
Q 1894 4228 1894 4206 
L 1894 428 
Q 1894 225 2694 225 
L 2694 0 
L 594 0 
z
" transform="scale(0.015625)"/>
      </defs>
      <use xlink:href="#DejaVuSerif-4d" transform="translate(0 0.015625)"/>
      <use xlink:href="#DejaVuSerif-65" transform="translate(102.392578 0.015625)"/>
      <use xlink:href="#DejaVuSerif-61" transform="translate(161.572266 0.015625)"/>
      <use xlink:href="#DejaVuSerif-6e" transform="translate(221.191406 0.015625)"/>
      <use xlink:href="#DejaVuSerif-20" transform="translate(285.595703 0.015625)"/>
      <use xlink:href="#Cmmi10-7a" transform="translate(317.382812 0.015625)"/>
      <use xlink:href="#DejaVuSerif-20" transform="translate(363.867188 0.015625)"/>
      <use xlink:href="#DejaVuSerif-28" transform="translate(395.654297 0.015625)"/>
      <use xlink:href="#Cmmi10-7a" transform="translate(434.667969 0.015625)"/>
      <use xlink:href="#Cmr10-3d" transform="translate(498.710938 0.015625)"/>
      <use xlink:href="#Cmr10-31" transform="translate(593.955078 0.015625)"/>
      <use xlink:href="#Cmmi10-3a" transform="translate(643.955078 0.015625)"/>
      <use xlink:href="#Cmr10-31" transform="translate(671.640625 0.015625)"/>
      <use xlink:href="#Cmr10-31" transform="translate(721.640625 0.015625)"/>
      <use xlink:href="#DejaVuSerif-29" transform="translate(771.640625 0.015625)"/>
     </g>
    </g>
    <g id="line2d_26">
     <path d="M 184.7375 149.565313 
L 191.7375 149.565313 
L 198.7375 149.565313 
" style="fill: none; stroke: #e36c55; stroke-width: 1.3; stroke-linecap: square"/>
    </g>
    <g id="text_17">
     <!-- High $z$ ($z=2.61$) -->
     <g transform="translate(204.3375 152.015312) scale(0.07 -0.07)">
      <defs>
       <path id="DejaVuSerif-48" d="M 353 0 
L 353 331 
L 947 331 
L 947 4331 
L 353 4331 
L 353 4666 
L 2175 4666 
L 2175 4331 
L 1581 4331 
L 1581 2719 
L 4000 2719 
L 4000 4331 
L 3406 4331 
L 3406 4666 
L 5228 4666 
L 5228 4331 
L 4634 4331 
L 4634 331 
L 5228 331 
L 5228 0 
L 3406 0 
L 3406 331 
L 4000 331 
L 4000 2338 
L 1581 2338 
L 1581 331 
L 2175 331 
L 2175 0 
L 353 0 
z
" transform="scale(0.015625)"/>
       <path id="DejaVuSerif-67" d="M 3359 2988 
L 3359 72 
Q 3359 -644 2965 -1033 
Q 2572 -1422 1844 -1422 
Q 1516 -1422 1216 -1362 
Q 916 -1303 641 -1184 
L 641 -488 
L 941 -488 
Q 997 -813 1206 -963 
Q 1416 -1113 1806 -1113 
Q 2313 -1113 2548 -827 
Q 2784 -541 2784 72 
L 2784 519 
Q 2616 206 2355 57 
Q 2094 -91 1709 -91 
Q 1097 -91 708 395 
Q 319 881 319 1663 
Q 319 2444 706 2928 
Q 1094 3413 1709 3413 
Q 2094 3413 2355 3264 
Q 2616 3116 2784 2803 
L 2784 3322 
L 3909 3322 
L 3909 2988 
L 3359 2988 
z
M 2784 1825 
Q 2784 2422 2554 2737 
Q 2325 3053 1888 3053 
Q 1444 3053 1217 2703 
Q 991 2353 991 1663 
Q 991 975 1217 622 
Q 1444 269 1888 269 
Q 2325 269 2554 583 
Q 2784 897 2784 1497 
L 2784 1825 
z
" transform="scale(0.015625)"/>
       <path id="Cmr10-32" d="M 319 0 
L 319 172 
Q 319 188 331 206 
L 1325 1306 
Q 1550 1550 1690 1715 
Q 1831 1881 1968 2097 
Q 2106 2313 2186 2536 
Q 2266 2759 2266 3009 
Q 2266 3272 2169 3511 
Q 2072 3750 1880 3894 
Q 1688 4038 1416 4038 
Q 1138 4038 916 3870 
Q 694 3703 603 3438 
Q 628 3444 672 3444 
Q 816 3444 917 3347 
Q 1019 3250 1019 3097 
Q 1019 2950 917 2848 
Q 816 2747 672 2747 
Q 522 2747 420 2851 
Q 319 2956 319 3097 
Q 319 3338 409 3548 
Q 500 3759 670 3923 
Q 841 4088 1055 4175 
Q 1269 4263 1509 4263 
Q 1875 4263 2190 4108 
Q 2506 3953 2690 3670 
Q 2875 3388 2875 3009 
Q 2875 2731 2753 2481 
Q 2631 2231 2440 2026 
Q 2250 1822 1953 1562 
Q 1656 1303 1563 1216 
L 838 519 
L 1453 519 
Q 1906 519 2211 526 
Q 2516 534 2534 550 
Q 2609 631 2688 1141 
L 2875 1141 
L 2694 0 
L 319 0 
z
" transform="scale(0.015625)"/>
       <path id="Cmr10-36" d="M 1600 -141 
Q 1203 -141 937 70 
Q 672 281 526 617 
Q 381 953 325 1322 
Q 269 1691 269 2069 
Q 269 2575 466 3084 
Q 663 3594 1045 3928 
Q 1428 4263 1953 4263 
Q 2172 4263 2361 4180 
Q 2550 4097 2658 3936 
Q 2766 3775 2766 3547 
Q 2766 3416 2677 3327 
Q 2588 3238 2456 3238 
Q 2331 3238 2240 3328 
Q 2150 3419 2150 3547 
Q 2150 3672 2240 3762 
Q 2331 3853 2456 3853 
L 2491 3853 
Q 2409 3969 2261 4023 
Q 2113 4078 1953 4078 
Q 1759 4078 1595 3993 
Q 1431 3909 1300 3765 
Q 1169 3622 1081 3448 
Q 994 3275 945 3053 
Q 897 2831 884 2637 
Q 872 2444 872 2150 
Q 984 2413 1190 2580 
Q 1397 2747 1656 2747 
Q 1941 2747 2175 2631 
Q 2409 2516 2578 2311 
Q 2747 2106 2836 1843 
Q 2925 1581 2925 1313 
Q 2925 938 2758 598 
Q 2591 259 2287 59 
Q 1984 -141 1600 -141 
z
M 1600 63 
Q 1847 63 1997 175 
Q 2147 288 2217 473 
Q 2288 659 2305 848 
Q 2322 1038 2322 1313 
Q 2322 1675 2287 1931 
Q 2253 2188 2100 2383 
Q 1947 2578 1631 2578 
Q 1372 2578 1205 2403 
Q 1038 2228 961 1961 
Q 884 1694 884 1447 
Q 884 1363 891 1319 
Q 891 1309 889 1303 
Q 888 1297 884 1288 
Q 884 1013 940 731 
Q 997 450 1156 256 
Q 1316 63 1600 63 
z
" transform="scale(0.015625)"/>
      </defs>
      <use xlink:href="#DejaVuSerif-48" transform="translate(0 0.015625)"/>
      <use xlink:href="#DejaVuSerif-69" transform="translate(87.207031 0.015625)"/>
      <use xlink:href="#DejaVuSerif-67" transform="translate(119.189453 0.015625)"/>
      <use xlink:href="#DejaVuSerif-68" transform="translate(183.203125 0.015625)"/>
      <use xlink:href="#DejaVuSerif-20" transform="translate(247.607422 0.015625)"/>
      <use xlink:href="#Cmmi10-7a" transform="translate(279.394531 0.015625)"/>
      <use xlink:href="#DejaVuSerif-20" transform="translate(325.878906 0.015625)"/>
      <use xlink:href="#DejaVuSerif-28" transform="translate(357.666016 0.015625)"/>
      <use xlink:href="#Cmmi10-7a" transform="translate(396.679688 0.015625)"/>
      <use xlink:href="#Cmr10-3d" transform="translate(460.722656 0.015625)"/>
      <use xlink:href="#Cmr10-32" transform="translate(555.966797 0.015625)"/>
      <use xlink:href="#Cmmi10-3a" transform="translate(605.966797 0.015625)"/>
      <use xlink:href="#Cmr10-36" transform="translate(633.652344 0.015625)"/>
      <use xlink:href="#Cmr10-31" transform="translate(683.652344 0.015625)"/>
      <use xlink:href="#DejaVuSerif-29" transform="translate(733.652344 0.015625)"/>
     </g>
    </g>
    <g id="line2d_27">
     <path d="M 184.7375 159.994219 
L 191.7375 159.994219 
L 198.7375 159.994219 
" style="fill: none; stroke-dasharray: 2.96,1.28; stroke-dashoffset: 0; stroke: #000000; stroke-opacity: 0.4; stroke-width: 0.8"/>
    </g>
    <g id="text_18">
     <!-- $c = m$ -->
     <g transform="translate(204.3375 162.444219) scale(0.07 -0.07)">
      <use xlink:href="#Cmmi10-63" transform="translate(0 0.8125)"/>
      <use xlink:href="#Cmr10-3d" transform="translate(60.771484 0.8125)"/>
      <use xlink:href="#Cmmi10-6d" transform="translate(156.015625 0.8125)"/>
     </g>
    </g>
   </g>
  </g>
 </g>
 <defs>
  <clipPath id="pf0c3b24e3b">
   <rect x="34.1625" y="1.44" width="233.245" height="168.76"/>
  </clipPath>
 </defs>
</svg>
